<svg width="25" height="25" viewBox="0 0 25 25" fill="none" xmlns="http://www.w3.org/2000/svg">
<g clip-path="url(#clip0_70_383)">
<path d="M12.4997 2.08325C6.74967 2.08325 2.08301 6.74992 2.08301 12.4999C2.08301 18.2499 6.74967 22.9166 12.4997 22.9166C18.2497 22.9166 22.9163 18.2499 22.9163 12.4999C22.9163 6.74992 18.2497 2.08325 12.4997 2.08325ZM9.67676 16.9687L5.93717 13.2291C5.53092 12.8228 5.53092 12.1666 5.93717 11.7603C6.34342 11.3541 6.99967 11.3541 7.40592 11.7603L10.4163 14.7603L17.583 7.59367C17.9893 7.18742 18.6455 7.18742 19.0518 7.59367C19.458 7.99992 19.458 8.65617 19.0518 9.06242L11.1455 16.9687C10.7497 17.3749 10.083 17.3749 9.67676 16.9687Z" fill="#5367FF"/>
</g>
<defs>
<clipPath id="clip0_70_383">
<rect width="25" height="25" fill="white"/>
</clipPath>
</defs>
</svg>
