<svg width="57" height="57" viewBox="0 0 57 57" fill="none" xmlns="http://www.w3.org/2000/svg">
<g filter="url(#filter0_dd_303_966)">
<circle cx="25.6855" cy="24.3215" r="17.5" fill="#5367FF"/>
</g>
<g clip-path="url(#clip0_303_966)">
<path d="M33.6852 19.8215H27.3602L30.1019 17.0798L29.5186 16.4882L26.1852 19.8215L22.8519 16.4882L22.2602 17.0798L25.0102 19.8215H18.6852C17.7686 19.8215 17.0186 20.5632 17.0186 21.4882V31.4882C17.0186 32.4048 17.7686 33.1548 18.6852 33.1548H33.6852C34.6019 33.1548 35.3519 32.4048 35.3519 31.4882V21.4882C35.3519 20.5632 34.6019 19.8215 33.6852 19.8215ZM33.6852 31.4882H18.6852V21.4882H33.6852V31.4882ZM23.6852 23.1548V29.8215L29.5186 26.4882L23.6852 23.1548Z" fill="white"/>
</g>
<defs>
<filter id="filter0_dd_303_966" x="-0.000219584" y="0" width="56.8287" height="56.8287" filterUnits="userSpaceOnUse" color-interpolation-filters="sRGB">
<feFlood flood-opacity="0" result="BackgroundImageFix"/>
<feColorMatrix in="SourceAlpha" type="matrix" values="0 0 0 0 0 0 0 0 0 0 0 0 0 0 0 0 0 0 127 0" result="hardAlpha"/>
<feOffset/>
<feGaussianBlur stdDeviation="0.341074"/>
<feColorMatrix type="matrix" values="0 0 0 0 0.0470588 0 0 0 0 0.101961 0 0 0 0 0.294118 0 0 0 0.1 0"/>
<feBlend mode="normal" in2="BackgroundImageFix" result="effect1_dropShadow_303_966"/>
<feColorMatrix in="SourceAlpha" type="matrix" values="0 0 0 0 0 0 0 0 0 0 0 0 0 0 0 0 0 0 127 0" result="hardAlpha"/>
<feOffset dx="2.72859" dy="4.09288"/>
<feGaussianBlur stdDeviation="5.45718"/>
<feColorMatrix type="matrix" values="0 0 0 0 0.0784314 0 0 0 0 0.145098 0 0 0 0 0.247059 0 0 0 0.12 0"/>
<feBlend mode="normal" in2="effect1_dropShadow_303_966" result="effect2_dropShadow_303_966"/>
<feBlend mode="normal" in="SourceGraphic" in2="effect2_dropShadow_303_966" result="shape"/>
</filter>
<clipPath id="clip0_303_966">
<rect width="20" height="20" fill="white" transform="translate(16.1855 14.8215)"/>
</clipPath>
</defs>
</svg>
