<svg width="140" height="24" viewBox="0 0 140 24" fill="none" xmlns="http://www.w3.org/2000/svg">
<path d="M11.9998 17.27L16.1498 19.78C16.9098 20.24 17.8398 19.56 17.6398 18.7L16.5398 13.98L20.2098 10.8C20.8798 10.22 20.5198 9.12001 19.6398 9.05001L14.8098 8.64001L12.9198 4.18001C12.5798 3.37001 11.4198 3.37001 11.0798 4.18001L9.18983 8.63001L4.35983 9.04001C3.47983 9.11001 3.11983 10.21 3.78983 10.79L7.45983 13.97L6.35983 18.69C6.15983 19.55 7.08983 20.23 7.84983 19.77L11.9998 17.27Z" fill="#FBBC05"/>
<path d="M41.0003 17.27L45.1503 19.78C45.9103 20.24 46.8403 19.56 46.6403 18.7L45.5403 13.98L49.2103 10.8C49.8803 10.22 49.5203 9.12001 48.6403 9.05001L43.8103 8.64001L41.9203 4.18001C41.5803 3.37001 40.4203 3.37001 40.0803 4.18001L38.1903 8.63001L33.3603 9.04001C32.4803 9.11001 32.1203 10.21 32.7903 10.79L36.4603 13.97L35.3603 18.69C35.1603 19.55 36.0903 20.23 36.8503 19.77L41.0003 17.27Z" fill="#FBBC05"/>
<path d="M70.0003 17.27L74.1503 19.78C74.9103 20.24 75.8403 19.56 75.6403 18.7L74.5403 13.98L78.2103 10.8C78.8803 10.22 78.5203 9.12001 77.6403 9.05001L72.8103 8.64001L70.9203 4.18001C70.5803 3.37001 69.4203 3.37001 69.0803 4.18001L67.1903 8.63001L62.3603 9.04001C61.4803 9.11001 61.1203 10.21 61.7903 10.79L65.4603 13.97L64.3603 18.69C64.1603 19.55 65.0903 20.23 65.8503 19.77L70.0003 17.27Z" fill="#FBBC05"/>
<path d="M99.0003 17.27L103.15 19.78C103.91 20.24 104.84 19.56 104.64 18.7L103.54 13.98L107.21 10.8C107.88 10.22 107.52 9.12001 106.64 9.05001L101.81 8.64001L99.9203 4.18001C99.5803 3.37001 98.4203 3.37001 98.0803 4.18001L96.1903 8.63001L91.3603 9.04001C90.4803 9.11001 90.1203 10.21 90.7903 10.79L94.4603 13.97L93.3603 18.69C93.1603 19.55 94.0903 20.23 94.8503 19.77L99.0003 17.27Z" fill="#FBBC05"/>
<path d="M128 17.27L132.15 19.78C132.91 20.24 133.84 19.56 133.64 18.7L132.54 13.98L136.21 10.8C136.88 10.22 136.52 9.12001 135.64 9.05001L130.81 8.64001L128.92 4.18001C128.58 3.37001 127.42 3.37001 127.08 4.18001L125.19 8.63001L120.36 9.04001C119.48 9.11001 119.12 10.21 119.79 10.79L123.46 13.97L122.36 18.69C122.16 19.55 123.09 20.23 123.85 19.77L128 17.27Z" fill="#FBBC05"/>
</svg>
