<svg width="57" height="57" viewBox="0 0 57 57" fill="none" xmlns="http://www.w3.org/2000/svg">
<g filter="url(#filter0_dd_303_965)">
<circle cx="25.6855" cy="24.3215" r="17.5" fill="#5367FF"/>
</g>
<g clip-path="url(#clip0_303_965)">
<path d="M26.1859 16.4882C21.5859 16.4882 17.8525 20.2215 17.8525 24.8215C17.8525 29.4215 21.5859 33.1548 26.1859 33.1548C30.7859 33.1548 34.5192 29.4215 34.5192 24.8215C34.5192 20.2215 30.7859 16.4882 26.1859 16.4882ZM25.3525 31.4298C22.0609 31.0215 19.5192 28.2215 19.5192 24.8215C19.5192 24.3048 19.5859 23.8132 19.6942 23.3298L23.6859 27.3215V28.1548C23.6859 29.0715 24.4359 29.8215 25.3525 29.8215V31.4298ZM31.1025 29.3132C30.8859 28.6382 30.2692 28.1548 29.5192 28.1548H28.6859V25.6548C28.6859 25.1965 28.3109 24.8215 27.8525 24.8215H22.8525V23.1548H24.5192C24.9775 23.1548 25.3525 22.7798 25.3525 22.3215V20.6548H27.0192C27.9359 20.6548 28.6859 19.9048 28.6859 18.9882V18.6465C31.1275 19.6382 32.8525 22.0298 32.8525 24.8215C32.8525 26.5548 32.1859 28.1298 31.1025 29.3132Z" fill="white"/>
</g>
<defs>
<filter id="filter0_dd_303_965" x="-0.000219584" y="0" width="56.8287" height="56.8287" filterUnits="userSpaceOnUse" color-interpolation-filters="sRGB">
<feFlood flood-opacity="0" result="BackgroundImageFix"/>
<feColorMatrix in="SourceAlpha" type="matrix" values="0 0 0 0 0 0 0 0 0 0 0 0 0 0 0 0 0 0 127 0" result="hardAlpha"/>
<feOffset/>
<feGaussianBlur stdDeviation="0.341074"/>
<feColorMatrix type="matrix" values="0 0 0 0 0.0470588 0 0 0 0 0.101961 0 0 0 0 0.294118 0 0 0 0.1 0"/>
<feBlend mode="normal" in2="BackgroundImageFix" result="effect1_dropShadow_303_965"/>
<feColorMatrix in="SourceAlpha" type="matrix" values="0 0 0 0 0 0 0 0 0 0 0 0 0 0 0 0 0 0 127 0" result="hardAlpha"/>
<feOffset dx="2.72859" dy="4.09288"/>
<feGaussianBlur stdDeviation="5.45718"/>
<feColorMatrix type="matrix" values="0 0 0 0 0.0784314 0 0 0 0 0.145098 0 0 0 0 0.247059 0 0 0 0.12 0"/>
<feBlend mode="normal" in2="effect1_dropShadow_303_965" result="effect2_dropShadow_303_965"/>
<feBlend mode="normal" in="SourceGraphic" in2="effect2_dropShadow_303_965" result="shape"/>
</filter>
<clipPath id="clip0_303_965">
<rect width="20" height="20" fill="white" transform="translate(16.1855 14.8215)"/>
</clipPath>
</defs>
</svg>
