<svg width="28" height="20" viewBox="0 0 28 20" fill="none" xmlns="http://www.w3.org/2000/svg">
<path fill-rule="evenodd" clip-rule="evenodd" d="M19.5879 11.4125C21.3004 12.575 22.5004 14.15 22.5004 16.25V20H26.2504C26.9379 20 27.5004 19.4375 27.5004 18.75V16.25C27.5004 13.525 23.0379 11.9125 19.5879 11.4125Z" fill="#5367FF"/>
<path d="M10 10C12.7614 10 15 7.76142 15 5C15 2.23858 12.7614 0 10 0C7.23858 0 5 2.23858 5 5C5 7.76142 7.23858 10 10 10Z" fill="#5367FF"/>
<path fill-rule="evenodd" clip-rule="evenodd" d="M17.5004 10C20.2629 10 22.5004 7.7625 22.5004 5C22.5004 2.2375 20.2629 0 17.5004 0C16.9129 0 16.3629 0.125 15.8379 0.3C16.8754 1.5875 17.5004 3.225 17.5004 5C17.5004 6.775 16.8754 8.4125 15.8379 9.7C16.3629 9.875 16.9129 10 17.5004 10Z" fill="#5367FF"/>
<path fill-rule="evenodd" clip-rule="evenodd" d="M10 11.25C6.6625 11.25 0 12.925 0 16.25V18.75C0 19.4375 0.5625 20 1.25 20H18.75C19.4375 20 20 19.4375 20 18.75V16.25C20 12.925 13.3375 11.25 10 11.25Z" fill="#5367FF"/>
</svg>
