<svg width="449" height="401" viewBox="0 0 449 401" fill="none" xmlns="http://www.w3.org/2000/svg">
<path d="M294.684 184.846C263.686 199.601 218.535 184.141 198.182 144.503C173.941 97.3068 87.3531 88.5875 61.7202 155.121C36.0852 221.654 69.7234 288.077 125.051 331.361C192.905 384.448 360.275 404.266 419.084 333.486C477.889 262.705 456.779 107.698 294.684 184.846Z" fill="#EAF4FE"/>
<path d="M355.053 152.714C355.053 156.679 351.838 159.894 347.873 159.894H267.104C263.139 159.894 259.924 156.679 259.924 152.714V109.636C259.924 105.671 263.139 102.456 267.104 102.456H347.873C351.838 102.456 355.053 105.671 355.053 109.636V152.714Z" fill="#EAF4FE"/>
<path d="M114.538 224.51H72.3564V221.817H114.538V224.51Z" fill="#9AC7F7"/>
<path d="M114.538 232.586H72.3564V229.894H114.538V232.586Z" fill="#9AC7F7"/>
<path d="M98.3842 240.663H72.3564V237.074H98.3842V240.663Z" fill="#9AC7F7"/>
<path d="M335.309 123.097H306.591V119.508H335.309V123.097Z" fill="#9AC7F7"/>
<path d="M335.309 132.969H306.591V129.38H335.309V132.969Z" fill="#9AC7F7"/>
<path d="M324.54 142.842H306.591V139.253H324.54V142.842Z" fill="#9AC7F7"/>
<path d="M300.906 132.373C300.906 140.466 294.344 147.029 286.25 147.029C278.152 147.029 271.59 140.466 271.59 132.373C271.59 124.275 278.152 117.712 286.25 117.712C294.344 117.712 300.906 124.275 300.906 132.373Z" fill="#9AC7F7"/>
<path d="M65.8567 244.8H38.2539V217.197H65.8567V244.8Z" fill="#9AC7F7"/>
<path d="M40.9844 242.068V219.927H63.1271V242.068H40.9844Z" fill="#EAF4FE"/>
<path d="M49.1743 226.75C49.1743 227.84 48.2923 228.722 47.2024 228.722C46.1146 228.722 45.2305 227.84 45.2305 226.75C45.2305 225.662 46.1146 224.78 47.2024 224.78C48.2923 224.78 49.1743 225.662 49.1743 226.75Z" fill="#9AC7F7"/>
<path d="M54.4241 230.858L57.9606 235.327L61.4929 239.794H47.3555L50.8898 235.327L54.4241 230.858Z" fill="#9AC7F7"/>
<path d="M47.7837 233.521L50.268 236.658L52.7502 239.794H42.8213L45.3035 236.658L47.7837 233.521Z" fill="#9AC7F7"/>
<path d="M201.031 198.973H201.241V101.534H201.031V198.973Z" fill="#C5E1F9"/>
<path d="M161.324 198.973H161.534V101.534H161.324V198.973Z" fill="#C5E1F9"/>
<path d="M121.619 198.973H121.827V101.534H121.619V198.973Z" fill="#C5E1F9"/>
<path d="M82.1208 198.973H81.915V101.534H82.1208V198.973Z" fill="#C5E1F9"/>
<path d="M201.032 149.633C200.034 147.97 199.085 146.262 198.182 144.503C190.697 129.933 177.274 119.029 161.534 112.876V101.534H201.032V149.633ZM161.324 112.794C151.843 109.117 141.527 107.16 131.172 107.16C128.056 107.16 124.931 107.336 121.827 107.698V101.534H161.324V112.794Z" fill="white"/>
<path d="M201.137 198.973H121.727H121.827V107.698C124.931 107.337 128.056 107.16 131.172 107.16C141.528 107.16 151.843 109.117 161.325 112.794V198.973H161.535V112.876C177.274 119.029 190.698 129.933 198.182 144.503C199.085 146.263 200.034 147.97 201.032 149.633V198.973H201.137Z" fill="#F1F8FE"/>
<path d="M201.136 198.973H201.031V101.534H201.136V198.973Z" fill="#D9EBFB"/>
<path d="M161.534 198.973H161.324V101.534H161.534V112.876V198.973Z" fill="#D9EBFB"/>
<path d="M121.827 198.973H121.727V101.534H121.827V107.698V198.973Z" fill="#D9EBFB"/>
<path d="M42.4187 198.87H240.739V101.639H42.4187V198.87ZM240.945 199.076H42.2129V101.429H240.945V199.076Z" fill="#C5E1F9"/>
<path d="M240.839 182.837H42.3135V182.629H240.839V182.837Z" fill="#C5E1F9"/>
<path d="M240.839 166.595H42.3135V166.391H240.839V166.595Z" fill="#C5E1F9"/>
<path d="M240.839 150.358H42.3135V150.15H240.839V150.358Z" fill="#C5E1F9"/>
<path d="M240.839 134.116H42.3135V133.91H240.839V134.116Z" fill="#C5E1F9"/>
<path d="M240.839 117.876H42.3135V117.668H240.839V117.876Z" fill="#C5E1F9"/>
<path d="M4.04242 83.6545C4.04242 84.7507 4.3805 85.3744 4.89921 85.3744C5.48302 85.3744 5.76235 84.694 5.76235 83.6167C5.76235 82.5771 5.49563 81.8946 4.90553 81.8946C4.40362 81.8946 4.04242 82.5058 4.04242 83.6545ZM6.33354 83.5894C6.33354 85.0258 5.80222 85.8175 4.86771 85.8175C4.0424 85.8175 3.48379 85.0447 3.47119 83.6482C3.47119 82.2327 4.08231 81.4536 4.93912 81.4536C5.82953 81.4536 6.33354 82.2453 6.33354 83.5894Z" fill="#C5E1F9"/>
<path d="M1.43628 65.7665H1.42365L0.690769 66.1635L0.581543 65.7288L1.50137 65.2332H1.99065V69.4563H1.43628V65.7665Z" fill="#C5E1F9"/>
<path d="M4.04242 67.3647C4.04242 68.4609 4.3805 69.0846 4.89921 69.0846C5.48302 69.0846 5.76235 68.4021 5.76235 67.3248C5.76235 66.2874 5.49563 65.6049 4.90553 65.6049C4.40362 65.6049 4.04242 66.216 4.04242 67.3647ZM6.33354 67.2996C6.33354 68.7339 5.80012 69.5256 4.86771 69.5256C4.0424 69.5256 3.48379 68.7549 3.47119 67.3584C3.47119 65.9409 4.08231 65.1639 4.93912 65.1639C5.82743 65.1639 6.33354 65.9577 6.33354 67.2996Z" fill="#C5E1F9"/>
<path d="M0.197266 53.1642V52.8135L0.644547 52.3767C1.72186 51.3519 2.20908 50.808 2.21538 50.1696C2.21538 49.7411 2.00747 49.3463 1.37746 49.3463C0.997359 49.3463 0.678163 49.5416 0.482861 49.7033L0.300134 49.3022C0.592038 49.0544 1.00784 48.8738 1.49715 48.8738C2.40436 48.8738 2.78866 49.4954 2.78866 50.0981C2.78866 50.8773 2.22378 51.5073 1.33337 52.3662L0.997367 52.677V52.6896H2.88948V53.1642H0.197266Z" fill="#C5E1F9"/>
<path d="M4.04242 51.0747C4.04242 52.1709 4.3805 52.7946 4.89921 52.7946C5.48302 52.7946 5.76235 52.1121 5.76235 51.0348C5.76235 49.9952 5.49563 49.3127 4.90553 49.3127C4.40362 49.3127 4.04242 49.9238 4.04242 51.0747ZM6.33354 51.0096C6.33354 52.4439 5.80012 53.2356 4.86771 53.2356C4.0424 53.2356 3.48379 52.4628 3.47119 51.0663C3.47119 49.6508 4.08231 48.8738 4.93912 48.8738C5.82743 48.8738 6.33354 49.6635 6.33354 51.0096Z" fill="#C5E1F9"/>
<path d="M0.332127 36.217C0.495929 36.3199 0.873967 36.4837 1.26877 36.4837C2.00168 36.4837 2.22848 36.0175 2.22428 35.6647C2.21588 35.0746 1.68458 34.8225 1.13227 34.8225H0.813041V34.392H1.13227C1.54807 34.392 2.07306 34.1778 2.07306 33.678C2.07306 33.342 1.85887 33.0417 1.33386 33.0417C0.99786 33.0417 0.672331 33.1929 0.489629 33.321L0.340535 32.9052C0.561038 32.7435 0.989435 32.5797 1.44514 32.5797C2.27675 32.5797 2.64847 33.0753 2.64847 33.5856C2.64847 34.0203 2.39227 34.392 1.87146 34.581V34.5957C2.39227 34.6986 2.81229 35.0871 2.81229 35.6773C2.81229 36.3535 2.28726 36.9457 1.27505 36.9457C0.800441 36.9457 0.38466 36.7945 0.176758 36.6601L0.332127 36.217Z" fill="#C5E1F9"/>
<path d="M4.04242 34.7827C4.04242 35.8789 4.3805 36.5026 4.89921 36.5026C5.48302 36.5026 5.76235 35.8222 5.76235 34.7427C5.76235 33.7032 5.49563 33.0228 4.90553 33.0228C4.40362 33.0228 4.04242 33.6339 4.04242 34.7827ZM6.33354 34.7175C6.33354 36.1519 5.80012 36.9457 4.86771 36.9457C4.0424 36.9457 3.48379 36.1708 3.47119 34.7742C3.47119 33.3609 4.08231 32.5797 4.93912 32.5797C5.82743 32.5797 6.33354 33.3735 6.33354 34.7175Z" fill="#C5E1F9"/>
<path d="M1.96352 18.9864V17.5752C1.96352 17.3568 1.96983 17.1342 1.98243 16.9158H1.96352C1.83332 17.1615 1.73041 17.342 1.6107 17.5395L0.581691 18.9738V18.9864H1.96352ZM1.96352 20.5824V19.4337H0V19.0578L1.8858 16.3613H2.50321V18.9864H3.09331V19.4337H2.50321V20.5824H1.96352Z" fill="#C5E1F9"/>
<path d="M4.04242 18.4929C4.04242 19.5891 4.3805 20.2128 4.89921 20.2128C5.48302 20.2128 5.76235 19.5303 5.76235 18.4529C5.76235 17.4134 5.49563 16.733 4.90553 16.733C4.40362 16.733 4.04242 17.342 4.04242 18.4929ZM6.33354 18.4278C6.33354 19.8621 5.80012 20.6559 4.86771 20.6559C4.0424 20.6559 3.48379 19.881 3.47119 18.4844C3.47119 17.0711 4.08231 16.292 4.93912 16.292C5.82743 16.292 6.33354 17.0837 6.33354 18.4278Z" fill="#C5E1F9"/>
<path d="M2.71779 0.550147H1.10704L0.943267 1.63586C1.03987 1.62116 1.13227 1.60857 1.28977 1.60857C1.61108 1.60857 1.93866 1.68207 2.19697 1.83537C2.52877 2.02437 2.80179 2.38768 2.80179 2.92108C2.80179 3.74639 2.14447 4.36169 1.22886 4.36169C0.768957 4.36169 0.37836 4.23151 0.176758 4.1013L0.321627 3.66659C0.495929 3.7716 0.840341 3.89969 1.22255 3.89969C1.76225 3.89969 2.22428 3.55108 2.22428 2.98618C2.21588 2.44017 1.85257 2.04957 1.00836 2.04957C0.768957 2.04957 0.582038 2.07688 0.424536 2.09578L0.69754 0.0713449H2.71779V0.550147Z" fill="#C5E1F9"/>
<path d="M4.04242 2.19867C4.04242 3.29698 4.3805 3.92069 4.89921 3.92069C5.48302 3.92069 5.76235 3.24028 5.76235 2.16087C5.76235 1.12136 5.49563 0.440962 4.90553 0.440962C4.40362 0.440962 4.04242 1.04995 4.04242 2.19867ZM6.33354 2.13357C6.33354 3.56999 5.80012 4.36169 4.86771 4.36169C4.0424 4.36169 3.48379 3.58889 3.47119 2.19237C3.47119 0.776954 4.08231 -4.33922e-05 4.93912 -4.33922e-05C5.82743 -4.33922e-05 6.33354 0.791658 6.33354 2.13357Z" fill="#C5E1F9"/>
<path d="M61.5395 204.341H61.5269L60.8402 204.713L60.7373 204.303L61.6004 203.841H62.0582V207.797H61.5395V204.341Z" fill="#C5E1F9"/>
<path d="M100.092 207.797V207.468L100.512 207.06C101.522 206.099 101.978 205.588 101.984 204.99C101.984 204.589 101.791 204.219 101.198 204.219C100.839 204.219 100.539 204.402 100.358 204.553L100.188 204.175C100.463 203.944 100.852 203.774 101.31 203.774C102.16 203.774 102.519 204.36 102.519 204.925C102.519 205.655 101.992 206.246 101.156 207.048L100.839 207.342V207.352H102.616V207.797H100.092Z" fill="#C5E1F9"/>
<path d="M139.929 207.182C140.082 207.279 140.435 207.432 140.805 207.432C141.494 207.432 141.708 206.993 141.701 206.666C141.695 206.109 141.197 205.874 140.679 205.874H140.381V205.473H140.679C141.067 205.473 141.561 205.271 141.561 204.803C141.561 204.486 141.359 204.207 140.868 204.207C140.551 204.207 140.246 204.347 140.076 204.467L139.935 204.079C140.143 203.925 140.544 203.774 140.971 203.774C141.75 203.774 142.103 204.236 142.103 204.717C142.103 205.127 141.859 205.473 141.372 205.649V205.662C141.859 205.759 142.256 206.124 142.256 206.678C142.256 207.311 141.762 207.865 140.815 207.865C140.368 207.865 139.977 207.726 139.784 207.598L139.929 207.182Z" fill="#C5E1F9"/>
<path d="M181.17 206.3V204.979C181.17 204.773 181.176 204.566 181.188 204.36H181.17C181.048 204.589 180.953 204.759 180.842 204.944L179.874 206.29V206.3H181.17ZM181.17 207.797V206.72H179.332V206.367L181.096 203.841H181.676V206.3H182.228V206.72H181.676V207.797H181.17Z" fill="#C5E1F9"/>
<path d="M221.59 204.293H220.08L219.927 205.309C220.02 205.297 220.104 205.284 220.251 205.284C220.555 205.284 220.86 205.351 221.103 205.496C221.412 205.673 221.668 206.013 221.668 206.513C221.668 207.287 221.051 207.865 220.196 207.865C219.765 207.865 219.398 207.743 219.209 207.621L219.343 207.214C219.507 207.311 219.831 207.432 220.19 207.432C220.694 207.432 221.126 207.103 221.126 206.573C221.12 206.063 220.778 205.696 219.988 205.696C219.766 205.696 219.585 205.721 219.44 205.742L219.696 203.841H221.59V204.293Z" fill="#C5E1F9"/>
<path d="M42.5402 200.193L42.0908 199.089L81.7939 182.849L121.484 165.474L161.313 149.381H201.386L240.617 133.507L241.064 134.614L201.615 150.574H161.544L121.946 166.574L82.258 183.947L42.5402 200.193Z" fill="#5367FF"/>
<path d="M121.715 183.374L82.0186 167.139L42.5402 183.286L42.0908 182.179L82.0186 165.848L121.732 182.091L161.068 167.154L200.765 118.29L200.899 118.232L240.604 100.986L241.077 102.082L201.51 119.269L161.792 168.153L161.643 168.212L121.715 183.374Z" fill="#9AC7F7"/>
<path d="M203.409 118.779C203.409 120.033 202.392 121.052 201.137 121.052C199.879 121.052 198.862 120.033 198.862 118.779C198.862 117.524 199.879 116.507 201.137 116.507C202.392 116.507 203.409 117.524 203.409 118.779Z" fill="white"/>
<path d="M201.136 117.106C200.212 117.106 199.461 117.856 199.461 118.78C199.461 119.704 200.212 120.456 201.136 120.456C202.06 120.456 202.812 119.704 202.812 118.78C202.812 117.856 202.06 117.106 201.136 117.106ZM201.136 121.648C199.553 121.648 198.266 120.361 198.266 118.78C198.266 117.198 199.553 115.911 201.136 115.911C202.72 115.911 204.007 117.198 204.007 118.78C204.007 120.361 202.72 121.648 201.136 121.648Z" fill="#9AC7F7"/>
<path d="M163.706 167.653C163.706 168.907 162.687 169.926 161.429 169.926C160.174 169.926 159.157 168.907 159.157 167.653C159.157 166.4 160.174 165.379 161.429 165.379C162.687 165.379 163.706 166.4 163.706 167.653Z" fill="white"/>
<path d="M161.429 165.976C160.505 165.976 159.755 166.729 159.755 167.653C159.755 168.577 160.505 169.329 161.429 169.329C162.353 169.329 163.107 168.577 163.107 167.653C163.107 166.729 162.353 165.976 161.429 165.976ZM161.429 170.524C159.846 170.524 158.561 169.235 158.561 167.653C158.561 166.07 159.846 164.783 161.429 164.783C163.013 164.783 164.302 166.07 164.302 167.653C164.302 169.235 163.013 170.524 161.429 170.524Z" fill="#9AC7F7"/>
<path d="M123.996 182.732C123.996 183.99 122.979 185.006 121.726 185.006C120.47 185.006 119.451 183.99 119.451 182.732C119.451 181.48 120.47 180.46 121.726 180.46C122.979 180.46 123.996 181.48 123.996 182.732Z" fill="white"/>
<path d="M121.726 181.056C120.8 181.056 120.046 181.81 120.046 182.732C120.046 183.658 120.8 184.41 121.726 184.41C122.65 184.41 123.4 183.658 123.4 182.732C123.4 181.81 122.65 181.056 121.726 181.056ZM121.726 185.604C120.141 185.604 118.854 184.315 118.854 182.732C118.854 181.15 120.141 179.863 121.726 179.863C123.306 179.863 124.595 181.15 124.595 182.732C124.595 184.315 123.306 185.604 121.726 185.604Z" fill="#9AC7F7"/>
<path d="M84.2914 166.492C84.2914 167.748 83.275 168.766 82.0191 168.766C80.7633 168.766 79.749 167.748 79.749 166.492C79.749 165.238 80.7633 164.222 82.0191 164.222C83.275 164.222 84.2914 165.238 84.2914 166.492Z" fill="white"/>
<path d="M82.019 164.816C81.095 164.816 80.3453 165.568 80.3453 166.492C80.3453 167.418 81.095 168.17 82.019 168.17C82.943 168.17 83.6949 167.418 83.6949 166.492C83.6949 165.568 82.943 164.816 82.019 164.816ZM82.019 169.363C80.4377 169.363 79.1504 168.075 79.1504 166.492C79.1504 164.911 80.4377 163.623 82.019 163.623C83.6024 163.623 84.8898 164.911 84.8898 166.492C84.8898 168.075 83.6024 169.363 82.019 169.363Z" fill="#9AC7F7"/>
<path d="M162.79 150.177C162.79 151.431 161.771 152.449 160.517 152.449C159.262 152.449 158.245 151.431 158.245 150.177C158.245 148.919 159.262 147.903 160.517 147.903C161.771 147.903 162.79 148.919 162.79 150.177Z" fill="white"/>
<path d="M160.517 148.499C159.591 148.499 158.841 149.251 158.841 150.177C158.841 151.101 159.591 151.853 160.517 151.853C161.439 151.853 162.191 151.101 162.191 150.177C162.191 149.251 161.439 148.499 160.517 148.499ZM160.517 153.046C158.934 153.046 157.646 151.758 157.646 150.177C157.646 148.594 158.934 147.306 160.517 147.306C162.099 147.306 163.386 148.594 163.386 150.177C163.386 151.758 162.099 153.046 160.517 153.046Z" fill="#5367FF"/>
<path d="M203.377 150.177C203.377 151.431 202.358 152.449 201.104 152.449C199.849 152.449 198.83 151.431 198.83 150.177C198.83 148.919 199.849 147.903 201.104 147.903C202.358 147.903 203.377 148.919 203.377 150.177Z" fill="white"/>
<path d="M201.105 148.499C200.181 148.499 199.427 149.251 199.427 150.177C199.427 151.101 200.181 151.853 201.105 151.853C202.029 151.853 202.779 151.101 202.779 150.177C202.779 149.251 202.029 148.499 201.105 148.499ZM201.105 153.046C199.524 153.046 198.234 151.758 198.234 150.177C198.234 148.594 199.524 147.306 201.105 147.306C202.686 147.306 203.974 148.594 203.974 150.177C203.974 151.758 202.686 153.046 201.105 153.046Z" fill="#5367FF"/>
<path d="M216.847 188.612C216.847 190.594 215.24 192.201 213.258 192.201H189.025C187.043 192.201 185.437 190.594 185.437 188.612V164.38C185.437 162.397 187.043 160.791 189.025 160.791H213.258C215.24 160.791 216.847 162.397 216.847 164.38V188.612Z" fill="#EA3E72"/>
<path d="M200.177 157.844C200.83 157.105 201.901 157.105 202.556 157.844L204.062 159.545C204.715 160.284 205.788 161.494 206.441 162.233L207.949 163.934C208.602 164.674 208.329 165.278 207.342 165.278H203.161C202.174 165.278 200.557 165.278 199.57 165.278H195.388C194.401 165.278 194.128 164.674 194.784 163.934L196.289 162.233C196.945 161.494 198.016 160.284 198.671 159.545L200.177 157.844Z" fill="#EA3E72"/>
<path fill-rule="evenodd" clip-rule="evenodd" d="M173.768 140.15C175.751 140.15 177.357 138.543 177.357 136.561V112.328C177.357 110.346 175.751 108.74 173.768 108.74H149.538C147.556 108.74 145.947 110.346 145.947 112.328V136.561C145.947 138.543 147.556 140.15 149.538 140.15H157.552C157.98 140.633 158.407 141.116 158.732 141.483L160.237 143.186C160.893 143.926 161.964 143.926 162.619 143.186L164.125 141.473C164.445 141.11 164.867 140.631 165.291 140.15H173.768Z" fill="url(#paint0_linear_55_737)"/>
<path d="M97.4874 149.123C97.4874 151.105 95.8788 152.714 93.8964 152.714H69.6662C67.6838 152.714 66.0752 151.105 66.0752 149.123V124.893C66.0752 122.91 67.6838 121.304 69.6662 121.304H93.8964C95.8788 121.304 97.4874 122.91 97.4874 124.893V149.123Z" fill="#FFDE59"/>
<path d="M82.7473 155.751C82.0921 156.49 81.0189 156.49 80.3658 155.751L78.8601 154.048C78.2049 153.308 77.1339 152.099 76.4808 151.359L74.9751 149.614C74.3199 148.875 74.5929 148.226 75.5799 148.226H79.761C80.748 148.226 82.365 148.226 83.3521 148.226H87.5332C88.5203 148.226 88.7932 148.875 88.138 149.614L86.6323 151.338C85.9771 152.078 84.9061 153.298 84.253 154.037L82.7473 155.751Z" fill="#FFDE59"/>
<path d="M161.595 117.358C157.777 117.358 154.669 120.466 154.669 124.284C154.669 128.102 157.777 131.207 161.595 131.207C165.415 131.207 168.521 128.102 168.521 124.284C168.521 120.466 165.415 117.358 161.595 117.358ZM161.595 132.596C157.013 132.596 153.285 128.868 153.285 124.284C153.285 119.701 157.013 115.972 161.595 115.972C166.179 115.972 169.907 119.701 169.907 124.284C169.907 128.868 166.179 132.596 161.595 132.596Z" fill="white"/>
<path d="M161.595 118.292C159.451 119.531 158.134 121.795 158.134 124.284C158.134 126.772 159.451 129.036 161.595 130.275C163.741 129.036 165.06 126.772 165.06 124.284C165.06 121.795 163.741 119.531 161.595 118.292ZM161.595 131.84L161.28 131.68C158.485 130.25 156.748 127.415 156.748 124.284C156.748 121.153 158.485 118.318 161.28 116.887L161.595 116.726L161.912 116.887C164.707 118.318 166.444 121.153 166.444 124.284C166.444 127.415 164.707 130.25 161.912 131.68L161.595 131.84Z" fill="white"/>
<path d="M161.594 121.514C159.475 121.514 157.455 120.709 155.903 119.248L156.853 118.24C158.146 119.458 159.83 120.128 161.594 120.128C163.361 120.128 165.045 119.458 166.336 118.24L167.288 119.248C165.738 120.709 163.715 121.514 161.594 121.514Z" fill="white"/>
<path d="M166.336 130.328C165.045 129.11 163.361 128.44 161.594 128.44C159.83 128.44 158.146 129.11 156.853 130.328L155.903 129.32C157.455 127.858 159.475 127.054 161.594 127.054C163.715 127.054 165.738 127.858 167.288 129.32L166.336 130.328Z" fill="white"/>
<path d="M162.29 131.903H160.904V116.665H162.29V131.903Z" fill="white"/>
<path d="M169.216 124.977H153.979V123.591H169.216V124.977Z" fill="white"/>
<path d="M83.4252 128.782V129.679H74.4518V128.782H83.4252ZM77.144 146.731V144.935H74.4518V143.142H77.144V141.346H74.4518V131.474H83.4252V136.859H85.2207V128.782C85.2207 127.793 84.4143 126.987 83.4252 126.987H74.4518C73.4606 126.987 72.6562 127.793 72.6562 128.782V144.935C72.6562 145.925 73.4606 146.731 74.4518 146.731H77.144Z" fill="white"/>
<path d="M87.0171 144.935H80.7339V140.45H87.0171V144.935ZM88.8126 145.834V143.142L91.5049 145.834V139.551L88.8126 142.243V139.551C88.8126 139.055 88.4095 138.654 87.9139 138.654H79.8372C79.3416 138.654 78.9404 139.055 78.9404 139.551V145.834C78.9404 146.33 79.3416 146.731 79.8372 146.731H87.9139C88.4095 146.731 88.8126 146.33 88.8126 145.834Z" fill="white"/>
<path d="M211.237 171.186L210.712 170.661L211.237 170.136L211.762 170.661L211.237 171.186ZM200.993 181.43H200.468V180.905L204.883 176.491L205.405 177.018L200.993 181.43ZM209.442 171.929L209.969 172.456L206.676 175.749L206.149 175.222L209.442 171.929ZM209.442 169.392L207.648 167.597L202.526 172.719L203.795 173.987L207.648 170.136L208.173 170.661L198.673 180.161V183.225H201.737L214.301 170.661L211.237 167.597L209.442 169.392Z" fill="white"/>
<path d="M196.877 167.441V169.762H194.557L196.877 167.441ZM207.648 180.533H205.853V185.018H194.185V171.557H198.673V167.07H207.648V165.276H196.506L192.392 169.39V186.814H207.648V180.533Z" fill="white"/>
<path d="M197.776 183.225V181.43H195.084V183.225H197.776Z" fill="white"/>
<path d="M444.217 305.569C444.217 305.569 438.36 306.346 422.637 317.724L444.217 305.569Z" fill="#C5E1F9"/>
<path d="M434.645 314.193C435.55 313.843 436.382 313.467 437.146 313.072C437.528 312.877 437.894 312.675 438.24 312.469C438.591 312.278 438.923 312.098 439.24 311.906C439.874 311.526 440.445 311.125 440.953 310.726C441.457 310.365 441.903 309.991 442.291 309.605C442.688 309.206 442.997 308.885 443.27 308.521C443.404 308.343 443.53 308.162 443.637 307.984C443.746 307.803 443.826 307.652 443.906 307.482C443.984 307.314 444.051 307.148 444.104 306.98C444.131 306.898 444.156 306.814 444.177 306.732C444.194 306.652 444.2 306.577 444.211 306.499C444.248 306.184 444.271 305.865 444.215 305.564C444.179 305.262 444.064 304.97 443.814 304.714C443.679 304.586 443.562 304.47 443.402 304.363C443.247 304.254 443.068 304.155 442.867 304.067C442.444 303.884 442.003 303.775 441.47 303.706C441.205 303.672 440.92 303.651 440.617 303.643C440.313 303.634 440.029 303.66 439.71 303.687C439.086 303.75 438.396 303.865 437.671 304.048C436.976 304.254 436.241 304.521 435.472 304.852C435.09 305.02 434.689 305.195 434.303 305.405C433.923 305.617 433.536 305.846 433.146 306.091C432.364 306.585 431.566 307.146 430.762 307.774C430.109 308.297 429.372 309.002 428.599 309.798C428.215 310.197 427.824 310.619 427.431 311.056C427.041 311.493 426.646 311.938 426.283 312.419C424.811 314.313 423.456 316.279 422.633 317.721C424.296 317.44 426.455 316.94 428.603 316.3C428.87 316.216 429.139 316.134 429.408 316.052C429.678 315.974 429.951 315.894 430.218 315.819C430.758 315.661 431.287 315.495 431.802 315.323C432.828 314.977 433.794 314.594 434.645 314.193Z" fill="#C5E1F9"/>
<path d="M437.364 321.997C437.364 321.997 418.848 322.889 418.086 322.98L437.364 321.997Z" fill="#C5E1F9"/>
<path d="M427.671 326.224C433.895 327.085 437.595 324.437 437.362 321.993C437.266 319.54 433.28 317.289 427.269 318.734C426.003 318.994 424.235 319.67 422.528 320.475C420.818 321.277 419.17 322.205 418.084 322.976C419.34 323.629 421.016 324.366 422.729 324.977C424.447 325.588 426.203 326.075 427.671 326.224Z" fill="#C5E1F9"/>
<path d="M422.036 306.203L416.372 322.875L422.036 306.203Z" fill="#C5E1F9"/>
<path d="M422.676 315.963C425.604 310.978 424.386 306.898 422.029 306.203C419.713 305.392 416.263 307.967 415.572 313.548C415.211 315.827 415.706 320.388 416.368 322.873C418.419 321.312 421.368 318.404 422.676 315.963Z" fill="#C5E1F9"/>
<path d="M411.572 305.285C411.572 305.285 405.599 317.436 411.198 328.746L411.572 305.285Z" fill="#C5E1F9"/>
<path d="M412.559 317.421C412.735 316.581 412.885 315.789 413.015 315.035C413.149 314.284 413.25 313.572 413.334 312.898C413.498 311.549 413.546 310.346 413.475 309.304C413.336 307.223 412.698 305.774 411.566 305.287C410.478 304.728 408.76 305.409 407.292 307.435C406.566 308.45 405.898 309.794 405.469 311.451C405.035 313.099 404.839 315.067 405.058 317.219C405.144 318.108 405.331 319.177 405.684 320.302C406.032 321.428 406.5 322.606 407.099 323.708C407.697 324.807 408.374 325.836 409.102 326.691C409.277 326.909 409.459 327.113 409.642 327.304C409.825 327.497 410.001 327.682 410.173 327.856C410.535 328.196 410.881 328.492 411.194 328.749C411.198 328.337 411.2 327.9 411.205 327.442C411.228 326.978 411.228 326.506 411.263 326.016C411.316 325.036 411.425 324.013 411.557 323.007C411.704 321.997 411.879 321.006 412.057 320.065C412.246 319.122 412.429 318.234 412.559 317.421Z" fill="#C5E1F9"/>
<path d="M431.693 331.481C431.693 331.481 420.761 329.229 411.185 331.222L431.693 331.481Z" fill="#C5E1F9"/>
<path d="M421.101 334.165C421.874 334.314 422.611 334.452 423.306 334.517C424.003 334.61 424.661 334.633 425.282 334.643C426.521 334.641 427.607 334.505 428.523 334.234C430.352 333.707 431.498 332.69 431.692 331.476C431.956 330.279 431.122 328.856 429.308 327.82C428.401 327.314 427.256 326.888 425.895 326.67C425.219 326.548 424.484 326.499 423.709 326.483C422.928 326.491 422.109 326.525 421.248 326.663C419.831 326.812 417.819 327.434 415.922 328.289C415.45 328.509 414.982 328.73 414.532 328.967C414.083 329.217 413.65 329.469 413.243 329.717C412.835 329.956 412.457 330.233 412.113 330.485C411.769 330.741 411.456 330.987 411.183 331.218C411.527 331.338 411.897 331.462 412.283 331.584C412.669 331.712 413.071 331.817 413.488 331.966C414.333 332.241 415.213 332.524 416.08 332.802C416.3 332.869 416.519 332.936 416.737 333.003C416.96 333.072 417.18 333.144 417.397 333.213C417.833 333.352 418.264 333.467 418.69 333.589C419.114 333.715 419.53 333.824 419.933 333.917C420.335 334.005 420.727 334.104 421.101 334.165Z" fill="#C5E1F9"/>
<path d="M430.932 339.996C430.932 339.996 424.487 335.2 407.548 342.861L430.932 339.996Z" fill="#C5E1F9"/>
<path d="M419.472 342.787C419.915 342.783 420.341 342.766 420.751 342.739C420.854 342.73 420.957 342.722 421.057 342.716C421.156 342.716 421.257 342.714 421.354 342.711C421.551 342.705 421.742 342.697 421.931 342.686C422.693 342.617 423.374 342.609 424.021 342.518C425.285 342.417 426.343 342.233 427.236 342.025C428.122 341.823 428.861 341.554 429.483 341.225C430.094 340.901 430.575 340.49 430.932 339.992C431.316 339.511 431.329 338.761 430.913 337.955C430.501 337.153 429.653 336.327 428.42 335.678C428.114 335.525 427.784 335.376 427.431 335.233C427.082 335.105 426.715 334.998 426.324 334.891C426.129 334.843 425.925 334.784 425.726 334.75C425.524 334.715 425.318 334.683 425.106 334.654C424.898 334.624 424.682 334.597 424.464 334.574C424.243 334.549 424.019 334.528 423.8 334.528C423.355 334.519 422.895 334.521 422.42 334.538C422.301 334.544 422.183 334.549 422.063 334.555C421.946 334.57 421.828 334.582 421.708 334.597C421.471 334.626 421.232 334.658 420.99 334.696C420.747 334.731 420.499 334.773 420.251 334.815C420.129 334.841 420.003 334.859 419.879 334.887C419.758 334.918 419.636 334.952 419.512 334.983C419.02 335.114 418.521 335.263 418.017 335.426C417.592 335.54 417.153 335.735 416.683 335.941C416.215 336.151 415.723 336.384 415.219 336.642C414.726 336.918 414.226 337.228 413.724 337.543C413.226 337.869 412.712 338.175 412.242 338.553C411.763 338.915 411.292 339.284 410.841 339.652C410.618 339.837 410.398 340.019 410.179 340.202C409.965 340.385 409.763 340.584 409.564 340.771C408.77 341.527 408.079 342.243 407.546 342.856C408.375 342.896 409.325 342.913 410.333 342.903C410.585 342.896 410.841 342.894 411.099 342.89C411.36 342.892 411.624 342.896 411.889 342.898C412.42 342.905 412.958 342.905 413.493 342.894C413.762 342.892 414.027 342.877 414.295 342.879C414.564 342.884 414.831 342.886 415.095 342.89C415.627 342.892 416.148 342.884 416.654 342.865C417.16 342.854 417.653 342.871 418.124 342.852C418.596 342.844 419.05 342.789 419.472 342.787Z" fill="#C5E1F9"/>
<path d="M399.346 316.518C401.727 320.602 405.675 341.731 405.675 341.731L399.346 316.518Z" fill="#C5E1F9"/>
<path d="M406.757 328.486C406.387 324.217 405.194 320.901 403.703 318.78C402.962 317.721 402.139 316.957 401.351 316.56C401.152 316.457 400.965 316.386 400.78 316.335C400.587 316.281 400.406 316.255 400.234 316.253C399.894 316.253 399.602 316.352 399.346 316.524C399.077 316.675 398.85 316.898 398.646 317.158C398.545 317.289 398.453 317.421 398.363 317.572C398.275 317.73 398.191 317.895 398.117 318.068C397.817 318.773 397.626 319.693 397.584 320.848C397.497 323.15 397.995 326.354 399.44 330.147C399.997 331.718 401.065 333.893 402.235 336.044C403.403 338.192 404.678 340.309 405.671 341.731C406.505 338.358 407.227 332.589 406.757 328.486Z" fill="#C5E1F9"/>
<path d="M391.371 333.58C391.371 333.58 402.31 343.02 407.098 354.658L391.371 333.58Z" fill="#C5E1F9"/>
<path d="M403.539 341.319C403.399 341.071 403.256 340.83 403.115 340.593C402.97 340.357 402.819 340.133 402.67 339.91C402.37 339.465 402.072 339.037 401.765 338.633C401.139 337.84 400.526 337.111 399.888 336.493C398.634 335.233 397.372 334.337 396.234 333.738C393.94 332.55 392.113 332.606 391.372 333.587C390.559 334.509 390.704 336.248 391.754 338.39C392.271 339.473 393.031 340.641 393.993 341.899C394.488 342.514 395.009 343.174 395.618 343.823C396.196 344.492 396.872 345.154 397.563 345.853C398.712 347.012 400.476 348.545 402.265 350.144C402.708 350.545 403.157 350.948 403.602 351.347C404.027 351.754 404.453 352.155 404.871 352.542C405.301 352.922 405.669 353.31 406.043 353.667C406.412 354.027 406.765 354.363 407.095 354.663C407.097 354.226 407.089 353.749 407.068 353.237C407.04 352.731 407.028 352.172 406.944 351.62C406.87 351.061 406.782 350.477 406.681 349.875C406.635 349.57 406.564 349.278 406.494 348.976L406.276 348.069C406.196 347.762 406.116 347.453 406.034 347.149C405.946 346.847 405.847 346.548 405.747 346.248C405.545 345.652 405.343 345.047 405.106 344.476C404.867 343.907 404.617 343.35 404.361 342.814C404.107 342.279 403.817 341.79 403.539 341.319Z" fill="#C5E1F9"/>
<path d="M431.175 347.231C431.175 347.231 419.816 344.643 408.545 351.242L431.175 347.231Z" fill="#C5E1F9"/>
<path d="M419.885 351.002C420.313 351.005 420.725 350.996 421.122 350.973C421.523 350.965 421.914 350.96 422.288 350.935C422.474 350.921 422.659 350.908 422.842 350.895C423.023 350.887 423.203 350.876 423.377 350.862C423.73 350.839 424.07 350.79 424.4 350.757C425.721 350.608 426.861 350.368 427.825 350.045C429.745 349.413 430.956 348.438 431.173 347.227C431.322 346.634 431.133 345.958 430.631 345.318C430.125 344.673 429.299 344.066 428.176 343.596C427.055 343.123 425.637 342.821 423.993 342.766C423.581 342.762 423.157 342.777 422.72 342.8C422.502 342.81 422.281 342.825 422.057 342.846C421.832 342.873 421.607 342.905 421.376 342.94C420.918 343.016 420.45 343.092 419.973 343.207C419.499 343.329 419.018 343.468 418.528 343.625C418.121 343.732 417.684 343.913 417.224 344.112C416.764 344.318 416.275 344.524 415.786 344.799C415.299 345.076 414.801 345.372 414.305 345.683C414.058 345.83 413.814 346.004 413.574 346.185C413.337 346.361 413.1 346.542 412.858 346.723C412.63 346.901 412.396 347.084 412.163 347.267C411.936 347.443 411.724 347.659 411.51 347.852C411.088 348.247 410.687 348.64 410.313 349.018C409.587 349.818 408.994 350.597 408.545 351.238C409.356 351.215 410.267 351.156 411.22 351.089C411.71 351.082 412.209 351.07 412.709 351.053C412.957 351.04 413.207 351.03 413.457 351.019C413.713 351.021 413.969 351.023 414.225 351.023C414.734 351.028 415.236 351.015 415.731 351.009C416.235 351.026 416.727 351.032 417.203 351.028C417.676 351.011 418.15 351.042 418.6 351.036C419.047 351.036 419.473 351.002 419.885 351.002Z" fill="#C5E1F9"/>
<path d="M413.451 394.555L413.027 394.519C414.289 379.71 411.46 370.111 410.25 366.013C409.994 365.142 409.824 364.564 409.793 364.249C409.408 360.488 408.667 357.428 408.012 354.728C406.477 348.392 405.265 343.388 409.45 333.793C413.106 325.411 421.696 317.996 428.258 313.252C435.358 308.12 441.679 304.921 441.742 304.89L441.936 305.27C441.873 305.302 435.575 308.489 428.502 313.603C421.985 318.313 413.457 325.67 409.841 333.963C405.712 343.428 406.909 348.369 408.428 354.627C409.085 357.34 409.83 360.415 410.217 364.207C410.244 364.482 410.418 365.075 410.66 365.892C411.876 370.014 414.721 379.666 413.451 394.555Z" fill="#EAF4FE"/>
<path d="M415.282 325.538L414.925 325.307C418.255 320.155 420.941 306.453 420.969 306.316L421.387 306.396C421.38 306.432 420.704 309.905 419.618 313.977C418.161 319.454 416.701 323.343 415.282 325.538Z" fill="#EAF4FE"/>
<path d="M415.959 324.431L415.724 324.074C422.024 319.926 436.449 321.72 437.06 321.8L437.005 322.222C436.856 322.203 422.124 320.369 415.959 324.431Z" fill="#EAF4FE"/>
<path d="M411.725 329.832C405.301 319.448 410.524 305.598 410.578 305.459L410.975 305.613C410.923 305.749 405.776 319.406 412.088 329.607L411.725 329.832Z" fill="#EAF4FE"/>
<path d="M431.186 331.582C431.093 331.525 421.845 325.995 411.105 331.46L410.912 331.08C421.87 325.504 431.316 331.162 431.408 331.218L431.186 331.582Z" fill="#EAF4FE"/>
<path d="M406.704 348.371C405.085 335.647 399.366 317.173 399.308 316.989L399.715 316.86C399.772 317.047 405.503 335.557 407.126 348.319L406.704 348.371Z" fill="#EAF4FE"/>
<path d="M407.077 344.595L406.668 344.48C407.292 342.241 410.566 340.091 415.423 338.726C421.013 337.157 428.405 336.84 431.095 339.35L430.804 339.66C429.659 338.594 427.402 337.976 424.445 337.924C421.71 337.875 418.46 338.316 415.538 339.137C410.826 340.46 407.663 342.502 407.077 344.595Z" fill="#EAF4FE"/>
<path d="M409.787 363.878C407.559 349.446 392.468 334.603 392.314 334.456L392.613 334.15C392.766 334.299 407.96 349.241 410.209 363.813L409.787 363.878Z" fill="#EAF4FE"/>
<path d="M407.882 352.605L407.544 352.344C411.324 347.42 417.244 345.946 421.545 345.576C426.188 345.177 429.997 345.946 430.035 345.954L429.949 346.372C429.8 346.34 414.942 343.407 407.882 352.605Z" fill="#EAF4FE"/>
<path d="M360.178 350.158L356.559 353.254C353.225 351.36 350.234 349.207 347.697 346.899C349.468 344.054 351.62 341.378 354.128 338.993C366.486 327.249 391.861 336.334 394.288 358.579C387.507 361.343 377.631 361.333 367.177 357.924C364.464 357.04 361.87 355.978 359.43 354.77L360.178 350.158Z" fill="#C5E1F9"/>
<path d="M400.212 373.011C398.273 363.447 392.595 356.914 392.538 356.849C388.208 352.021 383.162 348.503 377.54 346.395C373.042 344.709 368.168 343.915 363.046 344.035C354.324 344.24 347.848 347.065 347.783 347.094L347.61 346.706C347.675 346.676 354.23 343.816 363.035 343.608C368.21 343.486 373.14 344.289 377.691 345.996C383.378 348.128 388.479 351.683 392.855 356.565C392.912 356.628 398.668 363.252 400.63 372.927L400.212 373.011Z" fill="#70C1FB"/>
<path d="M356.511 344.646L352.235 340.912L352.517 340.593L356.79 344.324L356.511 344.646Z" fill="#70C1FB"/>
<path d="M362.803 343.953L356.494 337.243L356.805 336.951L363.111 343.661L362.803 343.953Z" fill="#70C1FB"/>
<path d="M369.138 344.24L361.633 334.866L361.967 334.599L369.47 343.976L369.138 344.24Z" fill="#70C1FB"/>
<path d="M374.917 345.479L368.42 333.988L368.792 333.778L375.289 345.269L374.917 345.479Z" fill="#70C1FB"/>
<path d="M379.674 347.149L374.641 335.072L375.033 334.908L380.069 346.985L379.674 347.149Z" fill="#70C1FB"/>
<path d="M385.407 350.486L381.516 338.188L381.923 338.06L385.812 350.358L385.407 350.486Z" fill="#70C1FB"/>
<path d="M390.281 354.493L387.45 343.264L387.864 343.161L390.695 354.39L390.281 354.493Z" fill="#70C1FB"/>
<path d="M352.605 350.708L352.248 350.475L356.278 344.285L356.635 344.518L352.605 350.708Z" fill="#70C1FB"/>
<path d="M356.254 353.113L355.914 352.859L362.785 343.68L363.128 343.936L356.254 353.113Z" fill="#70C1FB"/>
<path d="M361.962 355.919L361.605 355.688L369.126 343.993L369.483 344.224L361.962 355.919Z" fill="#70C1FB"/>
<path d="M368.012 358.267L367.641 358.054L374.917 345.27L375.289 345.48L368.012 358.267Z" fill="#70C1FB"/>
<path d="M373.507 359.652L373.129 359.455L379.683 346.968L380.061 347.168L373.507 359.652Z" fill="#70C1FB"/>
<path d="M380.05 360.594L379.681 360.384L385.424 350.316L385.794 350.528L380.05 360.594Z" fill="#70C1FB"/>
<path d="M386.508 360.472L386.159 360.226L390.315 354.318L390.664 354.564L386.508 360.472Z" fill="#70C1FB"/>
<path d="M406.084 271.275C403.82 278.193 398.831 280.931 391.575 281.059C385.874 275.782 384.733 269.249 388.891 262.392C393.03 255.592 401.04 249.926 407.989 247.923C408.581 254.87 408.323 264.435 406.084 271.275Z" fill="#C5E1F9"/>
<path d="M398.196 352.664C393.458 347.214 390.031 340.402 388.011 332.415C386.373 325.934 385.648 318.666 385.86 310.81C386.27 295.61 389.93 284.186 389.968 284.081C393.99 272.478 400.327 259.185 405.737 251.003L406.094 251.239C400.701 259.393 394.382 272.648 390.371 284.222C390.333 284.327 386.694 295.684 386.287 310.823C386.077 318.639 386.795 325.869 388.424 332.31C390.428 340.231 393.824 346.985 398.517 352.384L398.196 352.664Z" fill="#70C1FB"/>
<path d="M401.376 258.456C401.019 256.741 400.731 254.62 400.58 252.637L401.006 252.604C401.153 254.569 401.441 256.669 401.794 258.368L401.376 258.456Z" fill="#70C1FB"/>
<path d="M398.73 263.57C398.581 263.123 398.428 262.675 398.273 262.23C397.682 260.515 397.071 258.74 396.777 257.007L397.197 256.936C397.485 258.635 398.092 260.393 398.676 262.092C398.831 262.539 398.984 262.986 399.136 263.436L398.73 263.57Z" fill="#70C1FB"/>
<path d="M396.084 268.994C394.517 265.622 393.278 261.762 392.596 258.129L393.016 258.051C393.692 261.651 394.918 265.473 396.47 268.816L396.084 268.994Z" fill="#70C1FB"/>
<path d="M394.074 273.375C392.155 270.198 390.634 266.892 389.555 263.551L389.96 263.419C391.029 266.731 392.537 270.005 394.439 273.155L394.074 273.375Z" fill="#70C1FB"/>
<path d="M392.556 277.686C391.296 276.023 390.139 274.289 389.116 272.529L389.484 272.315C390.498 274.06 391.647 275.78 392.896 277.43L392.556 277.686Z" fill="#70C1FB"/>
<path d="M402.102 257.65L401.966 257.247C403.671 256.675 405.471 256.066 407.315 255.436L407.453 255.84C405.607 256.47 403.808 257.079 402.102 257.65Z" fill="#70C1FB"/>
<path d="M399.442 263.127L399.322 262.717C400.857 262.268 402.315 261.8 403.726 261.348C404.837 260.991 405.988 260.622 407.189 260.256L407.313 260.664C406.114 261.029 404.965 261.397 403.856 261.754C402.443 262.207 400.981 262.675 399.442 263.127Z" fill="#70C1FB"/>
<path d="M396.913 268.258L396.811 267.844C398.887 267.327 400.809 266.804 402.846 266.252C404.087 265.914 405.37 265.565 406.683 265.221L406.79 265.635C405.479 265.977 404.196 266.326 402.957 266.664C400.92 267.218 398.995 267.741 396.913 268.258Z" fill="#70C1FB"/>
<path d="M394.605 272.972L394.521 272.554C397.932 271.865 401.426 271.13 404.906 270.376L404.996 270.792C401.515 271.548 398.018 272.281 394.605 272.972Z" fill="#70C1FB"/>
<path d="M392.933 277.321L392.868 276.901C396.426 276.343 399.286 275.878 401.867 275.442L401.938 275.862C399.355 276.301 396.493 276.763 392.933 277.321Z" fill="#70C1FB"/>
<path d="M391.342 329.292C391.342 329.292 399.679 309.231 390.809 297.952C381.94 286.672 365.138 282.567 365.138 282.567C365.138 282.567 356.292 306.165 367.366 317.255C378.441 328.343 388.545 326.649 391.342 329.292Z" fill="#C5E1F9"/>
<path d="M400.546 377.163L400.12 377.154C400.38 365.487 398.696 353.262 395.113 340.82C392.245 330.861 388.162 320.743 382.975 310.745C374.147 293.72 365.064 282.813 364.974 282.704L365.301 282.431C365.391 282.54 374.503 293.483 383.355 310.548C388.553 320.571 392.646 330.716 395.523 340.702C399.118 353.187 400.808 365.453 400.546 377.163Z" fill="#70C1FB"/>
<path d="M369.065 287.271L368.761 286.973C369.676 286.045 370.497 284.556 371.203 282.546L371.606 282.687C370.878 284.757 370.023 286.299 369.065 287.271Z" fill="#70C1FB"/>
<path d="M371.319 291.347L371.031 291.032C372.417 289.772 373.637 287.441 374.658 284.106L375.065 284.232C374.022 287.64 372.762 290.035 371.319 291.347Z" fill="#70C1FB"/>
<path d="M374.121 295.11L373.85 294.781C375.622 293.327 377.153 290.297 378.281 286.017L378.692 286.124C377.527 290.555 375.987 293.579 374.121 295.11Z" fill="#70C1FB"/>
<path d="M376.558 298.945L376.304 298.603C378.998 296.595 380.657 291.987 381.575 288.478L381.988 288.585C381.054 292.162 379.353 296.862 376.558 298.945Z" fill="#70C1FB"/>
<path d="M378.96 302.941L378.721 302.591C382.095 300.291 384.049 294.304 384.914 290.94L385.325 291.045C383.381 298.619 380.791 301.696 378.96 302.941Z" fill="#70C1FB"/>
<path d="M381.262 307.003L381.037 306.641C384.857 304.256 387.115 297.683 388.123 293.978L388.534 294.09C387.511 297.855 385.206 304.539 381.262 307.003Z" fill="#70C1FB"/>
<path d="M383.364 311.194L383.152 310.825C387.55 308.29 390.303 300.48 391.282 297.24L391.691 297.364C388.814 306.879 385.24 310.113 383.364 311.194Z" fill="#70C1FB"/>
<path d="M385.667 315.254L385.466 314.878C389.714 312.612 392.616 305.896 393.969 302.095L394.37 302.238C392.999 306.098 390.042 312.921 385.667 315.254Z" fill="#70C1FB"/>
<path d="M387.631 319.672L387.442 319.29C390.987 317.537 393.805 312.799 395.546 309.132L395.931 309.315C394.162 313.042 391.288 317.864 387.631 319.672Z" fill="#70C1FB"/>
<path d="M389.349 323.923L389.171 323.536C391.279 322.566 393.43 320.512 395.568 317.432L395.918 317.675C393.736 320.819 391.527 322.921 389.349 323.923Z" fill="#70C1FB"/>
<path d="M368.401 287.162C366.759 286.582 364.894 286.133 362.857 285.828L362.92 285.406C364.985 285.715 366.877 286.17 368.544 286.761L368.401 287.162Z" fill="#70C1FB"/>
<path d="M371.413 291.133C368.815 290.083 365.669 289.591 362.061 289.673L362.051 289.249C365.717 289.165 368.92 289.665 371.572 290.738L371.413 291.133Z" fill="#70C1FB"/>
<path d="M374.081 295.094C369.805 293.168 364.771 293.613 361.302 294.327L361.216 293.909C364.746 293.185 369.874 292.733 374.257 294.705L374.081 295.094Z" fill="#70C1FB"/>
<path d="M360.724 299.652L360.559 299.26C364.116 297.777 370.935 295.711 376.626 298.516L376.439 298.899C370.897 296.169 364.215 298.199 360.724 299.652Z" fill="#70C1FB"/>
<path d="M360.117 305.869L359.871 305.518C359.978 305.444 370.699 298.075 379.04 302.513L378.841 302.891C370.726 298.573 360.222 305.795 360.117 305.869Z" fill="#70C1FB"/>
<path d="M361.865 310.97L361.594 310.64C361.623 310.619 364.374 308.382 368.152 306.782C373.177 304.655 377.737 304.611 381.338 306.656L381.128 307.026C372.697 302.238 361.972 310.881 361.865 310.97Z" fill="#70C1FB"/>
<path d="M363.614 316.073L363.322 315.762C363.35 315.735 366.13 313.147 369.979 311.261C375.103 308.75 379.791 308.613 383.533 310.862L383.312 311.228C374.564 305.967 363.723 315.97 363.614 316.073Z" fill="#70C1FB"/>
<path d="M367.496 319.156L367.219 318.83C369.031 317.278 371.875 315.186 375.121 314.031C378.987 312.658 382.486 312.933 385.514 314.848L385.285 315.21C382.454 313.418 376.377 311.549 367.496 319.156Z" fill="#70C1FB"/>
<path d="M370.741 322.74L370.468 322.413C373.093 320.233 375.697 318.746 378.206 317.994C381.68 316.95 384.863 317.364 387.671 319.221L387.436 319.575C384.164 317.412 378.61 316.207 370.741 322.74Z" fill="#70C1FB"/>
<path d="M374.922 325.346L374.668 325.004C380.086 320.961 385.227 320.39 389.536 323.353L389.295 323.704C386.405 321.717 381.564 320.388 374.922 325.346Z" fill="#70C1FB"/>
<path d="M418.31 399.738H388.897L383.998 369.403H423.214L418.31 399.738Z" fill="#9AC7F7"/>
<path d="M416.08 377.076H385.566V376.178H416.08V377.076Z" fill="#EAF4FE"/>
<path d="M131.594 400.832L130.918 400.622L150.738 336.92L151.414 337.13L131.594 400.832Z" fill="#00046D"/>
<path d="M276.019 400.832L256.199 337.13L256.875 336.92L276.693 400.622L276.019 400.832Z" fill="#00046D"/>
<path d="M197.453 400.832L177.633 337.13L178.309 336.92L198.127 400.622L197.453 400.832Z" fill="#00046D"/>
<path d="M248.256 334.429C248.256 337.165 246.039 339.383 243.303 339.383H143.724C140.987 339.383 138.77 337.165 138.77 334.429V331.773C138.77 329.036 140.987 326.819 143.724 326.819H243.303C246.039 326.819 248.256 329.036 248.256 331.773V334.429Z" fill="#C5E1F9"/>
<path d="M270.693 334.429C270.693 337.165 268.474 339.383 265.737 339.383H187.698C184.962 339.383 182.744 337.165 182.744 334.429V331.773C182.744 329.036 184.962 326.819 187.698 326.819H265.737C268.474 326.819 270.693 329.036 270.693 331.773V334.429Z" fill="#9AC7F7"/>
<path d="M179.151 229.203C179.151 229.203 181.982 220.708 180.096 208.44C178.208 196.172 173.725 184.376 169.241 181.545C165.629 179.262 162.762 180.434 159.806 184.376C159.096 185.319 157.916 179.185 152.254 184.376C146.592 189.565 140.931 204.666 147.065 212.216C153.199 219.766 163.579 219.766 159.806 225.9C156.03 232.034 133.03 233.113 127.247 234.867C119.46 237.225 103.33 254.156 125.831 268.369C139.278 276.861 142.109 270.727 158.861 284.883C164.501 289.65 181.511 303.286 193.307 296.209C205.105 289.129 203.217 257.043 179.151 229.203Z" fill="#212957"/>
<path d="M159.923 241.826C159.923 241.826 150.368 252.442 141.874 252.442C133.381 252.442 124.887 246.073 121.348 249.964C117.81 253.857 113.561 270.137 125.594 275.446C137.627 280.755 156.841 270.605 164.877 272.615C166.293 272.97 157.445 255.628 159.923 241.826Z" fill="#225AAA"/>
<path d="M225.079 317.291C225.562 320.027 223.732 322.331 220.998 322.331H142.432C139.694 322.331 137.085 320.027 136.605 317.291L128.74 272.621C128.259 269.885 130.086 267.587 132.82 267.587H211.389C214.125 267.587 216.733 269.885 217.216 272.621L225.079 317.291Z" fill="#9AC7F7"/>
<path d="M145.097 317.291L137.235 272.621C136.752 269.885 138.579 267.587 141.315 267.587H132.82C130.086 267.587 128.259 269.843 128.74 272.577L136.605 317.272C137.085 320.01 139.694 322.331 142.432 322.331H150.927C148.188 322.331 145.58 320.027 145.097 317.291Z" fill="#C5E1F9"/>
<path d="M172.665 226.608L157.091 244.657C157.091 244.657 160.629 288.539 194.606 299.865C228.58 311.19 278.481 299.865 278.481 299.865L215.721 235.81L193.898 223.422L172.665 226.608Z" fill="url(#paint1_linear_55_737)"/>
<path d="M160.276 214.929C160.276 214.929 168.416 225.9 166.648 234.039C164.878 242.179 172.664 242.887 179.034 239.701C185.403 236.517 183.988 228.731 182.925 226.607C181.865 224.484 173.372 227.668 172.31 204.666C171.247 181.663 158.153 210.683 160.276 214.929Z" fill="#F7B68B"/>
<path d="M176.946 222.727C174.798 220.127 172.79 215.089 172.31 204.666C171.247 181.663 158.153 210.683 160.276 214.929C160.276 214.929 162.519 217.955 164.395 222.004C164.542 222.126 164.691 222.246 164.842 222.357C169.716 225.998 174.344 226.883 176.946 222.727Z" fill="#EC9568"/>
<path d="M152.962 202.778C152.962 202.778 157.8 212.806 162.399 216.345C168.097 220.727 173.372 220.238 173.725 208.913C173.96 201.367 173.607 201.008 170.539 193.694C168.202 188.122 165.94 188.15 163.107 191.925C160.276 195.701 162.872 200.89 152.962 202.778Z" fill="#F7B68B"/>
<path d="M145.059 202.896C145.059 202.896 142.934 206.082 147.537 208.558C152.136 211.036 153.199 210.683 150.721 217.405C148.245 224.132 143.289 253.857 143.289 253.857C143.289 253.857 132.673 256.335 126.302 252.797C119.932 249.258 148.245 215.282 148.245 215.282L141.518 207.85C141.518 207.85 143.644 200.065 145.059 202.896Z" fill="#F7B68B"/>
<path d="M195.903 224.012C195.903 224.012 210.294 225.665 218.552 238.405C226.809 251.144 241.202 262.47 244.033 270.727C246.864 278.986 248.042 289.13 243.561 289.602C239.079 290.075 236.509 291.135 225.746 282.17C215.131 273.323 211.474 261.527 207.463 257.516C203.452 253.505 187.41 220.946 195.903 224.012Z" fill="#225AAA"/>
<path d="M268.581 298.101H289.793C289.686 295.408 287.742 293.613 285.352 293.613H273.023C270.633 293.613 268.688 295.408 268.581 298.101Z" fill="#9AC7F7"/>
<path d="M233.533 261.997L272.109 288.187L280.366 287.949L285.32 291.962C285.32 291.962 286.265 296.681 284.495 297.034C282.727 297.387 278.006 294.203 278.006 294.203C278.006 294.203 274.232 292.905 273.524 294.086C272.543 295.719 274.931 296.719 274.704 297.624C274.585 298.097 270.964 296.06 270.456 295.266C269.629 293.968 269.041 293.378 269.278 291.725C269.421 290.734 239.806 286.616 231.765 281.107C227.804 278.398 219.377 263.767 233.533 261.997Z" fill="#F7B68B"/>
<path d="M366.022 269.796C365.541 272.535 362.931 274.767 360.194 274.767H218.636C215.897 274.767 214.073 272.535 214.553 269.796L229.155 187.133C229.638 184.397 232.248 182.328 234.985 182.328H376.543C379.282 182.328 381.106 184.397 380.626 187.133L366.022 269.796Z" fill="#C5E1F9"/>
<path d="M219.507 269.796L234.111 187.133C234.594 184.397 237.202 182.328 239.939 182.328H234.985C232.248 182.328 229.638 184.391 229.155 187.127L214.553 269.876C214.073 272.613 215.897 274.767 218.636 274.767H223.59C220.854 274.767 219.026 272.535 219.507 269.796Z" fill="#9AC7F7"/>
<path d="M322.745 298.101H292.231V239.766H322.745V298.101Z" fill="#9AC7F7"/>
<path d="M432.234 400.41H80.4355V399.511H432.234V400.41Z" fill="#00046D"/>
<path fill-rule="evenodd" clip-rule="evenodd" d="M192.048 326.819C188.079 326.819 185.552 322.705 186.405 317.885L187.942 308.889C188.793 304.067 192.699 299.895 196.665 299.895H274.312C276.428 299.895 278.134 301.08 279.136 302.918L288.388 302.343L347.136 388.694L341.472 395.771L266.415 326.819H192.048Z" fill="#212957"/>
<path d="M343.243 392.673L271.912 314.254H225.82V313.357H272.309L272.441 313.504L343.907 392.068L343.243 392.673Z" fill="white"/>
<path d="M346.937 389.402C346.937 389.402 356.946 395.259 366.854 396.676C376.764 398.089 374.032 400.41 374.032 400.41H342.489V393.648L346.937 389.402Z" fill="#EA3E72"/>
<path d="M182.925 391.72L180.097 400.41H202.745C202.745 400.41 205.814 398.327 199.915 395.968C195.916 394.368 195.666 392.428 195.666 392.428L182.925 391.72Z" fill="#EA3E72"/>
<path d="M191.657 397.146C191.657 397.146 196.611 398.465 202.275 397.285C202.441 397.251 202.592 397.157 202.733 397.107C202.034 396.512 201.12 395.998 199.915 395.796C195.666 395.088 195.666 392.245 195.666 392.245L182.925 391.726L180.097 400.41H182.76C186.229 397.718 191.657 397.146 191.657 397.146Z" fill="#D32A6B"/>
<path d="M243.326 305.174L195.666 392.232L182.925 391.525L203.453 302.343L243.326 305.174Z" fill="#212957"/>
<path d="M381.079 306.177H208.77V298.101H381.079V306.177Z" fill="#9AC7F7"/>
<path d="M209.667 306.177H119.922V298.101H209.667V306.177Z" fill="#C5E1F9"/>
<path d="M186.407 390.724L185.544 390.479L207.105 314.254H189.026V313.357H208.291L208.13 313.926L186.407 390.724Z" fill="white"/>
<path d="M283.109 141.945H281.313V136.561H283.109V141.945ZM278.621 134.765V136.561H279.52V141.945C279.52 142.934 280.324 143.739 281.313 143.739H283.109C284.096 143.739 284.904 142.934 284.904 141.945V136.561H285.801V134.765H283.109V125.79L284.006 124.893L283.109 122.201H281.313L280.417 124.893L281.313 125.79V134.765H278.621Z" fill="#EAF4FE"/>
<path d="M286.699 141.046C286.699 142.216 287.449 143.203 288.493 143.575V141.046H290.288V143.575C291.33 143.203 292.082 142.216 292.082 141.046C292.082 139.876 291.33 138.892 290.288 138.52V127.421C291.33 127.049 292.082 126.065 292.082 124.893C292.082 123.723 291.33 122.736 290.288 122.364V124.893H288.493V122.364C287.449 122.736 286.699 123.723 286.699 124.893C286.699 126.065 287.449 127.049 288.493 127.421V138.52C287.449 138.892 286.699 139.876 286.699 141.046Z" fill="#EAF4FE"/>
<defs>
<linearGradient id="paint0_linear_55_737" x1="145.947" y1="108.74" x2="180.744" y2="139.966" gradientUnits="userSpaceOnUse">
<stop stop-color="#5367FF"/>
<stop offset="1" stop-color="#00D09C"/>
</linearGradient>
<linearGradient id="paint1_linear_55_737" x1="217.787" y1="304.899" x2="217.787" y2="223.422" gradientUnits="userSpaceOnUse">
<stop stop-color="#5367FF"/>
<stop offset="1" stop-color="#00D09C"/>
</linearGradient>
</defs>
</svg>
