<svg width="530" height="374" viewBox="0 0 530 374" fill="none" xmlns="http://www.w3.org/2000/svg">
<path d="M352.332 13.0308C326.428 20.5057 299.932 42.5351 246.711 36.8663C147.152 26.2572 61.7716 73.1596 94.7211 182.026C127.672 290.891 206.622 344.312 293.92 292.379C358.008 254.255 354.288 204.104 397.892 190.967C479.079 166.506 497.372 103.384 460.65 53.0366C423.927 2.68951 386.776 3.09506 352.332 13.0308Z" fill="#EAF4FE"/>
<path d="M529.137 70.1721H470.819C468.111 64.3506 464.718 58.6142 460.649 53.0368C449.738 38.0781 438.786 27.5979 427.882 20.5185C433.083 17.7799 439.006 16.2303 445.296 16.2303C456.325 16.2303 466.206 21.0192 473.077 28.5918C475.196 28.1261 477.394 27.862 479.656 27.862C495.063 27.862 507.776 39.2409 509.956 54.0457C511.405 53.57 512.935 53.2471 514.548 53.2471C522.724 53.2471 529.35 59.8784 529.35 68.0518C529.35 68.7803 529.236 69.4762 529.137 70.1721Z" fill="#E2F0FC"/>
<path d="M470.821 70.1721H386.872C386.723 69.1295 386.614 68.0768 386.614 66.9991C386.614 54.7303 396.554 44.7871 408.82 44.7871C408.846 44.7871 408.89 44.7871 408.89 44.7871C411.484 34.2493 418.51 25.4538 427.883 20.5185C438.788 27.5979 449.74 38.0781 460.651 53.0368C464.72 58.6142 468.113 64.3506 470.821 70.1721Z" fill="#D7EAFB"/>
<path d="M82.6681 153.498C81.8603 152.727 81.8449 151.43 82.6318 150.605L169.501 59.543C170.289 58.7169 171.584 58.6693 172.391 59.4441L315.983 196.514C316.786 197.288 316.8 198.582 316.016 199.405L229.145 290.469C228.357 291.295 227.063 291.339 226.254 290.571L82.6681 153.498Z" fill="#69AEEB"/>
<path d="M78.2014 156.219C77.3839 155.437 77.4933 153.995 78.4468 152.993L85.9316 145.15C86.8825 144.15 88.3214 143.971 89.141 144.752L234.684 283.695C235.501 284.472 235.392 285.918 234.435 286.918L226.956 294.761C226.001 295.763 224.564 295.939 223.748 295.159L78.2014 156.219Z" fill="#69AEEB"/>
<path d="M82.6215 157.263C82.0118 156.68 80.5842 156.593 79.4317 157.075L3.88672 186.556C2.7371 187.038 -0.697767 191.388 0.126291 192.178L189.497 372.955C190.322 373.745 194.533 370.13 194.989 368.987L222.986 294.114C223.443 292.972 223.317 291.572 222.702 290.988L82.6215 157.263Z" fill="#9AC7F7"/>
<path d="M85.792 153.937C85.1826 153.358 83.7524 153.273 82.6038 153.752L3.88684 186.556C2.73721 187.038 2.47195 188.065 3.29889 188.854L192.669 369.635C193.495 370.418 194.533 370.13 194.989 368.988L226.154 290.792C226.611 289.648 226.486 288.25 225.873 287.666L85.792 153.937Z" fill="#69AEEB"/>
<path d="M8.64258 188.24L91.2022 153.387L227.717 283.709L192.531 363.783L8.64258 188.24Z" fill="#AEC4DB"/>
<path d="M16.8853 179.599L87.6946 150.041L228.719 284.664L200.772 355.141L16.8853 179.599Z" fill="#BCD0E2"/>
<path d="M25.1289 170.959L87.6954 150.041L228.72 284.664L209.017 346.5L25.1289 170.959Z" fill="#CEE0F0"/>
<path d="M34.7017 166.766L87.392 153.877L221.084 281.504L209.027 333.182L34.7017 166.766Z" fill="#AEC4DB"/>
<path d="M33.688 161.986L87.6949 150.041L228.719 284.664L217.575 337.528L33.688 161.986Z" fill="#E4EEF3"/>
<path d="M87.4062 149.926L169.286 64.0929L310.485 198.882L228.603 284.714L87.4062 149.926Z" fill="white"/>
<path d="M349.433 70.3034C349.509 70.9556 349.04 71.5464 348.388 71.6202L280.12 79.4694C279.469 79.5433 278.879 79.0739 278.804 78.4218L273.286 30.4003C273.213 29.7507 273.68 29.1599 274.332 29.0861L342.601 21.2381C343.253 21.163 343.844 21.6311 343.917 22.2808L349.433 70.3034Z" fill="#136FB7"/>
<path d="M347.554 69.9207L280.547 77.6248L280.026 73.0987L347.033 65.396L347.554 69.9207Z" fill="#D1EBF9"/>
<path d="M313.861 72.2434L308.799 28.1672C308.817 28.1247 308.828 28.0809 308.82 28.032C308.809 27.9094 308.784 27.7905 308.763 27.6716C308.696 25.4749 310.323 23.5523 312.546 23.297L341.813 19.9313L347.084 65.8161L317.817 69.1818C315.973 69.3921 314.492 70.6225 313.861 72.2434Z" fill="#EAF4FE"/>
<path d="M313.885 72.2386L308.823 28.1624C308.796 28.1261 308.776 28.0873 308.77 28.0397C308.755 27.9158 308.751 27.7944 308.746 27.673C308.313 25.5201 306.288 24.0144 304.069 24.2722L274.802 27.6355L280.073 73.519L309.341 70.1558C311.181 69.9455 312.905 70.8042 313.885 72.2386Z" fill="#EAF4FE"/>
<path d="M308.747 27.6729C308.444 26.1684 307.363 24.9806 305.979 24.4899L311.245 70.3222C312.321 70.6389 313.257 71.3186 313.886 72.2385L308.824 28.1623C308.797 28.126 308.777 28.0872 308.771 28.0397C308.756 27.9157 308.752 27.7943 308.747 27.6729Z" fill="#D1EBF9"/>
<path d="M295.027 32.3877L279.829 34.1338L279.679 32.8058L294.875 31.0597L295.027 32.3877Z" fill="#A6D9E8"/>
<path d="M305.074 35.253L280.287 38.103L280.171 37.108L304.961 34.2567L305.074 35.253Z" fill="#A6D9E8"/>
<path d="M305.409 38.1753L280.621 41.0254L280.507 40.0291L305.295 37.179L305.409 38.1753Z" fill="#A6D9E8"/>
<path d="M305.744 41.098L280.956 43.948L280.842 42.9504L305.631 40.1004L305.744 41.098Z" fill="#A6D9E8"/>
<path d="M306.082 44.0208L281.293 46.8708L281.179 45.8745L305.969 43.0257L306.082 44.0208Z" fill="#A6D9E8"/>
<path d="M306.417 46.9422L281.63 49.7922L281.514 48.7984L306.304 45.9471L306.417 46.9422Z" fill="#A6D9E8"/>
<path d="M306.753 49.8665L281.963 52.7166L281.848 51.719L306.638 48.8702L306.753 49.8665Z" fill="#A6D9E8"/>
<path d="M307.089 52.7901L282.298 55.6389L282.186 54.6426L306.974 51.79L307.089 52.7901Z" fill="#A6D9E8"/>
<path d="M307.426 55.7113L282.635 58.5601L282.522 57.5637L307.312 54.7149L307.426 55.7113Z" fill="#A6D9E8"/>
<path d="M307.762 58.6339L282.974 61.4839L282.858 60.4876L307.648 57.6375L307.762 58.6339Z" fill="#A6D9E8"/>
<path d="M308.095 61.5579L283.307 64.4067L283.193 63.4104L307.981 60.5604L308.095 61.5579Z" fill="#A6D9E8"/>
<path d="M308.431 64.4768L283.642 67.3269L283.527 66.3318L308.317 63.483L308.431 64.4768Z" fill="#A6D9E8"/>
<path d="M338.569 31.4032L313.78 34.252L313.666 33.2569L338.454 30.4081L338.569 31.4032Z" fill="#A6D9E8"/>
<path d="M338.905 34.3257L314.115 37.177L314.002 36.1794L338.791 33.3294L338.905 34.3257Z" fill="#A6D9E8"/>
<path d="M339.241 37.2489L314.451 40.0964L314.335 39.1014L339.126 36.2513L339.241 37.2489Z" fill="#A6D9E8"/>
<path d="M339.575 40.1707L314.785 43.0195L314.671 42.0232L339.46 39.1757L339.575 40.1707Z" fill="#A6D9E8"/>
<path d="M339.911 43.0923L315.122 45.9436L315.007 44.9473L339.797 42.0972L339.911 43.0923Z" fill="#A6D9E8"/>
<path d="M340.249 46.0172L315.457 48.8647L315.341 47.8672L340.134 45.0184L340.249 46.0172Z" fill="#A6D9E8"/>
<path d="M340.583 48.9388L315.794 51.7876L315.68 50.7913L340.47 47.9425L340.583 48.9388Z" fill="#A6D9E8"/>
<path d="M340.918 51.8614L316.129 54.7114L316.014 53.7163L340.803 50.8663L340.918 51.8614Z" fill="#A6D9E8"/>
<path d="M341.256 54.784L316.465 57.6328L316.353 56.6365L341.139 53.7877L341.256 54.784Z" fill="#A6D9E8"/>
<path d="M341.591 57.7064L316.804 60.5564L316.688 59.5601L341.478 56.7113L341.591 57.7064Z" fill="#A6D9E8"/>
<path d="M341.928 60.6267L317.136 63.4768L317.022 62.483L341.813 59.6317L341.928 60.6267Z" fill="#A6D9E8"/>
<path d="M412.278 72.3097L371.365 34.9049C369.719 33.3979 367.162 33.5143 365.657 35.1615L320.085 85.0417C318.58 86.6876 318.695 89.2435 320.343 90.7505L361.255 128.157C362.899 129.661 365.457 129.545 366.96 127.9L412.533 78.0186C414.038 76.3726 413.925 73.8155 412.278 72.3097Z" fill="url(#paint0_linear_70_406)"/>
<path d="M320.343 90.7505L361.255 128.157C362.9 129.661 365.457 129.545 366.96 127.9L372.424 121.92L328.53 81.7873C326.883 80.2803 324.327 80.398 322.823 82.0452L320.085 85.0416C318.58 86.6876 318.695 89.2435 320.343 90.7505Z" fill="#225AAA"/>
<path d="M338.936 94.2015C338.162 93.4955 336.959 93.5493 336.253 94.3241L333.515 97.3206C332.807 98.0929 332.864 99.2957 333.637 100.003L365.329 128.979C365.936 128.766 366.499 128.407 366.962 127.9L370.98 123.5L338.936 94.2015Z" fill="#225AAA"/>
<path d="M321.789 89.1682C321.016 88.461 320.961 87.2581 321.666 86.4858L324.404 83.4893C325.111 82.7171 326.314 82.662 327.086 83.3692L369.402 122.056L365.381 126.457C364.675 127.229 363.471 127.28 362.701 126.574L321.789 89.1682Z" fill="white"/>
<path d="M327.085 83.3695C326.313 82.6623 325.109 82.7174 324.402 83.4897L322.938 85.0906C323.647 84.317 324.329 84.8352 325.101 85.5412L367.415 124.23L369.4 122.056L327.085 83.3695Z" fill="#EAEAEC"/>
<path d="M324.166 99.3105L322.238 95.8334L318.605 94.2263L324.355 87.9341L327.136 90.4775L329.915 93.0172L324.166 99.3105Z" fill="#FF7A00"/>
<path d="M377.967 55.5974L391.609 68.0728L390.909 68.8413L377.263 56.3647L377.967 55.5974Z" fill="white"/>
<path d="M362.644 54.6252L393.955 83.2521L392.632 84.6978L361.321 56.0721L362.644 54.6252Z" fill="white"/>
<path d="M362.367 60.6681L387.961 84.0692L386.64 85.5149L361.046 62.115L362.367 60.6681Z" fill="white"/>
<path d="M216.633 78.5292L209.485 59.0996L236.056 71.3784L216.633 78.5292ZM210.532 91.738L262.911 72.4549L191.256 39.3408L210.532 91.738Z" fill="#FFC400"/>
<path d="M209.572 89.1296L209.132 87.933L213.409 86.3584L213.849 87.555L209.572 89.1296Z" fill="white"/>
<path d="M208.036 84.9595L207.597 83.7629L210.057 82.8579L210.496 84.0545L208.036 84.9595Z" fill="white"/>
<path d="M206.502 80.7874L206.062 79.5907L210.338 78.0174L210.778 79.214L206.502 80.7874Z" fill="white"/>
<path d="M204.97 76.6182L204.529 75.4216L206.988 74.5166L207.428 75.7132L204.97 76.6182Z" fill="white"/>
<path d="M203.436 72.4478L202.995 71.2512L207.272 69.6766L207.712 70.8731L203.436 72.4478Z" fill="white"/>
<path d="M201.899 68.2769L201.459 67.0802L203.918 66.1753L204.358 67.3719L201.899 68.2769Z" fill="white"/>
<path d="M200.365 64.1062L199.926 62.9096L204.201 61.335L204.642 62.5316L200.365 64.1062Z" fill="white"/>
<path d="M198.832 59.936L198.392 58.7394L200.85 57.8345L201.291 59.0311L198.832 59.936Z" fill="white"/>
<path d="M197.298 55.7649L196.857 54.5683L201.134 52.9937L201.575 54.1903L197.298 55.7649Z" fill="white"/>
<path d="M195.764 51.5947L195.323 50.3981L197.782 49.4932L198.222 50.6898L195.764 51.5947Z" fill="white"/>
<path d="M194.229 47.4243L193.788 46.229L198.064 44.6531L198.504 45.8497L194.229 47.4243Z" fill="white"/>
<path d="M157.31 174.163C157.31 174.163 164.24 162.307 169.188 155.763C174.138 149.218 180.83 131.562 165.541 129.687C150.252 127.812 156.551 122.707 147.936 121.598C139.319 120.492 134.205 123.4 133.185 129.232C132.166 135.061 127.679 144.691 122.399 143.966C117.12 143.243 91.2293 141.315 100.034 163.086C108.84 184.855 157.282 201.797 157.31 174.163Z" fill="#212957"/>
<path d="M176.864 174.463C176.864 174.463 188.269 179.43 192.161 179.973C196.052 180.518 191.898 184.699 186.626 186.939C181.355 189.178 176.364 192.249 173.849 187.533C171.334 182.817 174.083 173.083 176.864 174.463Z" fill="#F7B68B"/>
<path d="M180.766 179.176C180.766 179.176 214.913 171.844 221.572 169.601C228.233 167.356 223.265 172.85 214.948 178.434C206.631 184.017 180.257 194.183 178.023 190.299C175.787 186.415 169.085 174.765 180.766 179.176Z" fill="#F7B68B"/>
<path d="M151.464 161.025C151.283 157.406 170.415 170.181 177.131 173.65C181.3 175.804 179.552 186.792 177.939 191.37C177.057 193.87 152.785 187.392 151.464 161.025Z" fill="#225AAA"/>
<path d="M150.302 220.859C150.302 220.859 114.022 177.786 128.121 166.783C129.365 165.813 138.877 156.895 152.269 160.193C156.963 161.349 163.735 179.931 160.763 187.222C160.602 187.616 165.945 207.369 167.86 212.281C170.714 219.604 150.302 220.859 150.302 220.859Z" fill="url(#paint1_linear_70_406)"/>
<path d="M115.73 180.624C115.73 180.624 97.7961 203.086 97.3669 205.612C96.9365 208.138 107.721 219.81 125.927 189.851C135.932 173.392 115.73 180.624 115.73 180.624Z" fill="#F7B68B"/>
<path d="M149.604 150.126C150.718 143.406 143.922 150.343 143.922 150.343C143.922 150.343 144.074 159.415 140.226 165.078C140.956 165.807 141.765 166.485 142.65 167.099C146.015 169.429 149.869 170.402 153.447 170.108C150.177 162.571 148.87 154.538 149.604 150.126Z" fill="#F7B68B"/>
<path d="M143.333 156.697C144.238 158.478 145.539 160.03 147.233 161.204C148.38 161.998 149.628 162.564 150.93 162.915C149.554 157.839 149.102 153.137 149.603 150.126C150.718 143.406 143.921 150.342 143.921 150.342C143.921 150.342 143.969 153.194 143.333 156.697Z" fill="#EC9568"/>
<path d="M155.733 135.413C155.733 135.413 156.604 144.482 154.758 148.746C152.913 153.011 150.769 158.586 146.505 156.739C143.095 155.262 141.812 148.536 140.702 145.443C139.625 142.435 145.499 141.385 144.521 132.078C144.166 128.713 152.495 137.049 155.733 135.413Z" fill="#F7B68B"/>
<path d="M110.076 206.368L124.721 232.133L134.179 241.779L137.237 245.706L137.773 255.855C137.773 255.855 137.37 256.069 136.751 255.193C136.62 255.009 136.701 256.198 136.701 256.198C136.701 256.198 134.789 256.237 133.273 250.868C133.108 250.282 133.185 253.286 133.185 253.286C133.185 253.286 132.77 253.58 131.552 251.638C131.145 250.991 131.245 249.957 130.588 249.031C129.904 248.062 128.349 245.769 127.251 244.607C126.151 243.447 124.894 242.879 123.246 241.004C121.108 238.569 120.742 236.196 120.742 236.196C120.742 236.196 105.656 219.872 101.423 214.282C97.1894 208.692 95.1774 206.239 98.2053 204.649C101.233 203.057 110.076 206.368 110.076 206.368Z" fill="#F7B68B"/>
<path d="M113.355 229.778L112.909 228.739L121.833 224.912L122.278 225.951L113.355 229.778Z" fill="#9AC7F7"/>
<path d="M115.517 231.581L114.989 230.58L122.652 226.538L123.179 227.538L115.517 231.581Z" fill="#FD2227"/>
<path d="M136.292 247.562C136.292 247.562 136.951 251.974 137.409 254.286L137.773 255.854C137.773 255.854 137.37 256.068 136.75 255.192L136.175 249.217L133.612 245.2L136.292 247.562Z" fill="#EC9568"/>
<path d="M133.293 253.246C133.293 253.246 133.322 253.242 133.304 253.218L133.305 253.188L133.354 251.939C133.329 252.575 133.293 253.246 133.293 253.246Z" fill="#EC9568"/>
<path d="M131.811 246.139L134.189 249.501C134.189 249.501 134.494 252.97 135.31 255.281C134.686 254.549 133.941 253.233 133.273 250.868C133.262 250.825 133.252 250.806 133.242 250.8L133.332 249.338L131.811 246.139Z" fill="#EC9568"/>
<path d="M235.1 171.31L237.061 174.375C237.061 174.375 235.488 174.188 234.782 173.085C234.174 172.133 233.43 170.968 233.43 170.968L235.1 171.31Z" fill="#F7B68B"/>
<path d="M231.499 170.782L233.244 172.382L233.003 174.84C233.003 174.84 232.317 175.025 231.854 173.041C231.746 172.596 229.766 170.915 229.766 170.915L231.499 170.782Z" fill="#F7B68B"/>
<path d="M221.495 169.903C221.495 169.903 226.145 168.661 231.479 169.055C236.812 169.449 236.627 170.86 237.967 171.822C239.311 172.785 241.319 173.943 239.385 173.757C237.452 173.57 234.903 171.566 233.901 171.42C232.901 171.275 231.439 171.83 229.977 172.096C228.511 172.364 227.448 172.4 228.851 172.894C230.257 173.387 230.724 173.548 231.125 173.896C231.529 174.24 232.201 174.724 231.874 175.348C231.547 175.971 230.671 175.173 230.203 175.008C229.738 174.844 227.073 174.936 226.473 174.849C225.871 174.761 224.197 173.556 223.057 172.911C222.496 172.593 221.281 171.616 220.256 170.568C219.202 169.493 220.029 170.172 221.495 169.903Z" fill="#F7B68B"/>
<path d="M137.133 165.311C137.133 165.311 143.369 176.87 128.771 191.1C120.593 199.073 111.818 180.263 111.818 180.263C111.818 180.263 133.063 158.095 137.133 165.311Z" fill="#225AAA"/>
<path d="M285.962 265.833L263.469 261.219L262.743 253.785L269.591 253C269.591 253 294.617 264.64 285.962 265.833Z" fill="#F7B68B"/>
<path d="M282.361 259.781C282.036 259.804 285.903 266.415 263.055 256.977L263.45 261.413C263.45 261.413 279.522 268.425 290.363 265.98C294.248 265.103 286.853 262.573 282.361 259.781Z" fill="#212957"/>
<path d="M318.686 322.67L325.115 328.587C325.115 328.587 347.202 321.781 352.611 311.223C353.987 308.539 350.494 309.115 343.758 311.16C337.259 313.134 326.06 315.26 321.351 315.595C316.641 315.931 318.686 322.67 318.686 322.67Z" fill="#F7B68B"/>
<path d="M270.245 251.685L268.163 246.205L264.995 246.213L240.139 186.184C240.139 186.184 235.169 167.465 216.728 176.485C192.888 188.145 164.938 207.784 164.938 207.784C164.938 207.784 163.479 230.563 169.458 233.009C184.441 239.138 225.795 201.083 225.795 201.083C225.795 201.083 229.869 223.579 256.356 251.471C262.282 257.711 263.194 258.524 263.194 258.524L270.245 251.685Z" fill="#212957"/>
<path d="M165.138 206.816C165.138 206.816 247.853 285.05 315.445 311.304C322.094 313.886 323.614 314.82 323.614 314.82L319.617 325.432L314.373 323.127C314.373 323.127 255.626 309.602 248.059 303.038C240.492 296.473 229.497 281.628 190.979 271.474C152.462 261.318 148.967 221.353 149.329 219.524C149.69 217.696 165.138 206.816 165.138 206.816Z" fill="#212957"/>
<path d="M321.559 321.265C321.34 321.19 299.167 313.571 260.952 297.869C252.121 294.239 241.11 287.69 228.225 278.402C217.923 270.976 206.406 261.791 193.991 251.102C172.858 232.905 156.232 216.437 156.066 216.273L156.358 215.979C156.523 216.143 173.141 232.602 194.264 250.79C206.668 261.471 218.176 270.648 228.469 278.066C241.326 287.335 252.307 293.869 261.108 297.485C299.311 313.183 321.473 320.798 321.692 320.873L321.559 321.265Z" fill="white"/>
<path d="M165.542 224.381L165.189 224.162C167.886 219.802 163.375 211.419 163.33 211.335L163.693 211.136C163.704 211.158 164.874 213.316 165.684 216.001C166.781 219.636 166.732 222.456 165.542 224.381Z" fill="white"/>
<path d="M264.945 254.927C259.56 250.169 251.512 236.89 241.026 215.459C233.743 200.571 227.766 186.732 226.95 184.836L176.054 215.773L175.839 215.419L227.144 184.234L227.238 184.454C227.301 184.601 233.6 199.336 241.399 215.278C251.713 236.358 259.95 249.961 265.219 254.616L264.945 254.927Z" fill="white"/>
<path d="M260.475 253.343L260.181 253.05C264.88 248.331 268.011 246.06 268.042 246.037L268.285 246.374C268.254 246.396 265.147 248.649 260.475 253.343Z" fill="white"/>
<path d="M343.107 311.243C348.394 314.401 332.207 323.821 321.407 325.175L325.113 328.587C325.113 328.587 347.201 321.781 352.61 311.223C353.789 308.924 350.857 308.343 343.107 311.243Z" fill="#212957"/>
<path d="M255.949 62.3127L249.879 59.3851L249.25 58.5089L250.096 57.9006L250.571 58.5602L254.675 60.5404L254.107 56.0169L253.633 55.3572L254.48 54.7489L255.108 55.6238L255.949 62.3127Z" fill="#00046D"/>
<path d="M233.052 24.4273L227.338 28.5366L249.44 59.2913L255.154 55.1808L233.052 24.4273ZM232.815 25.883L253.699 54.943L249.677 57.8356L228.793 28.7744L232.815 25.883Z" fill="#00046D"/>
<path d="M251.008 56.3311L230.072 27.2022L230.918 26.5927L251.854 55.7227L251.008 56.3311Z" fill="#00046D"/>
<path d="M230.446 22.198L229.175 20.4294C229.018 20.2116 228.677 20.1904 228.41 20.3819L224.988 22.8439C224.72 23.0367 224.63 23.3671 224.787 23.5861L226.058 25.3547" fill="white"/>
<path d="M225.635 25.6592L224.364 23.8906C224.218 23.6865 224.16 23.4325 224.202 23.1759C224.25 22.8817 224.427 22.6064 224.684 22.4211L228.107 19.9591C228.606 19.6011 229.274 19.6762 229.598 20.1243L230.869 21.8942L230.023 22.5025L228.782 20.7752C228.765 20.7789 228.741 20.7864 228.715 20.8065L225.293 23.2673C225.265 23.2873 225.249 23.3086 225.24 23.3236L226.481 25.0509L225.635 25.6592Z" fill="#00046D"/>
<path d="M228.414 30.0334L225.982 26.6502L231.697 22.5397L234.128 25.923L228.414 30.0334Z" fill="#0561FC"/>
<path d="M367.298 105.794C363.924 105.794 360.681 106.85 357.917 108.846C354.437 111.362 352.14 115.076 351.449 119.301C350.757 123.538 351.761 127.798 354.273 131.292C356.787 134.788 360.504 137.094 364.738 137.785C365.607 137.926 366.49 137.997 367.361 137.997C370.737 137.997 373.986 136.941 376.756 134.943C380.235 132.43 382.531 128.719 383.22 124.493C383.912 120.254 382.909 115.994 380.396 112.5C377.881 109.005 374.163 106.699 369.925 106.009C369.055 105.866 368.172 105.794 367.298 105.794ZM367.361 139.041C366.434 139.041 365.494 138.964 364.571 138.813C360.061 138.079 356.104 135.624 353.427 131.902C350.751 128.179 349.683 123.646 350.419 119.133C351.156 114.632 353.601 110.68 357.306 108.001C360.249 105.875 363.704 104.752 367.298 104.752C368.228 104.752 369.168 104.828 370.094 104.98C374.605 105.716 378.564 108.17 381.242 111.891C383.918 115.611 384.986 120.146 384.25 124.661C383.514 129.161 381.071 133.112 377.367 135.788C374.418 137.916 370.957 139.041 367.361 139.041Z" fill="#00046D"/>
<path d="M395.413 155.151L389.904 159.113L377.539 141.912L383.051 137.948L395.413 155.151Z" fill="#9AC7F7"/>
<path d="M394.973 155.468L392.697 157.106L380.334 139.904L382.612 138.266L394.973 155.468Z" fill="#C5E1F9"/>
<path d="M396.363 156.473C395.936 159.088 393.47 160.863 390.853 160.436C390.536 159.994 390.221 159.556 389.904 159.113C391.742 157.791 393.578 156.473 395.413 155.152C395.731 155.592 396.047 156.033 396.363 156.473Z" fill="#EAF4FE"/>
<path d="M380.32 140.736L376.447 135.348L377.294 134.739L381.167 140.128L380.32 140.736Z" fill="#00046D"/>
<path d="M275.089 7.91517C278.618 14.9821 275.751 23.571 268.687 27.1019C261.623 30.6304 253.037 27.7641 249.507 20.6972C245.979 13.6303 248.845 5.04008 255.909 1.51038C262.974 -2.01932 271.561 0.848263 275.089 7.91517Z" fill="#C9E265"/>
<path d="M264.425 18.5659C261.538 20.0078 258.016 18.8325 256.574 15.9449L256.098 14.9912C255.924 14.6419 256.065 14.2164 256.416 14.0399C256.767 13.8659 257.193 14.0074 257.368 14.3578L257.843 15.3103C258.937 17.4982 261.603 18.3894 263.79 17.2967C265.977 16.204 266.868 13.5355 265.776 11.3476L265.299 10.3938C265.125 10.0433 265.268 9.61777 265.617 9.44253C265.969 9.2673 266.395 9.40998 266.569 9.75919L267.046 10.713C268.487 13.6006 267.311 17.124 264.425 18.5659Z" fill="white"/>
<path d="M263.157 16.0275C261.67 16.7697 259.857 16.1639 259.112 14.6769L256.895 10.2335C256.152 8.744 256.757 6.93033 258.244 6.18684C259.731 5.44335 261.546 6.04915 262.289 7.53864L264.507 11.9821C265.249 13.469 264.645 15.284 263.157 16.0275Z" fill="white"/>
<path d="M265.852 21.4219C265.502 21.5972 265.075 21.4557 264.9 21.104L263.553 18.4066C263.378 18.0562 263.521 17.6294 263.87 17.4541C264.222 17.2789 264.647 17.4216 264.823 17.7733L266.17 20.4707C266.345 20.8211 266.202 21.2467 265.852 21.4219Z" fill="white"/>
<path d="M268.866 19.916L262.837 22.9275C262.487 23.1027 262.061 22.9613 261.885 22.6108C261.711 22.2604 261.852 21.8323 262.203 21.6583L268.231 18.6456C268.582 18.4703 269.008 18.613 269.183 18.9635C269.359 19.3152 269.216 19.7408 268.866 19.916Z" fill="white"/>
<path d="M436.903 156.922C435.629 164.719 428.278 170.005 420.486 168.729C412.692 167.455 407.408 160.103 408.683 152.306C409.957 144.512 417.308 139.224 425.1 140.498C432.893 141.772 438.178 149.128 436.903 156.922Z" fill="#5367FF"/>
<path d="M481.296 240.472C496.333 226.697 500.229 206.468 485.204 190.055C470.178 173.642 449.694 175.752 434.657 189.532C422.925 200.278 426.386 212.236 423.049 228.132C422.39 231.278 413.568 236.819 413.568 236.819L432.356 257.34C432.356 257.34 438.645 249.033 441.836 248.655C457.961 246.721 469.566 251.22 481.296 240.472Z" fill="#FEC12F"/>
<path d="M426.428 240.792C431.039 218.825 426.257 202.298 442.467 187.448C445.953 184.255 449.651 181.517 453.489 179.275C446.826 180.773 440.35 184.314 434.657 189.532C422.925 200.278 426.386 212.236 423.049 228.132C422.39 231.278 413.568 236.819 413.568 236.819L422.186 246.231C424.326 244.329 426.102 242.349 426.428 240.792Z" fill="#FFAB01"/>
<path d="M413.247 236.467L410.42 239.058C405.732 243.352 405.41 250.634 409.705 255.325L413.59 259.571C417.884 264.26 425.165 264.577 429.852 260.283L432.679 257.695L413.247 236.467Z" fill="#5367FF"/>
<path d="M473.822 229.239L470.988 228.742L471.92 223.432L464.688 224.061L465.953 216.919L458.727 217.551L459.991 210.411L452.771 211.048L454.036 203.909L448.694 204.386L448.438 201.518L457.525 200.708L456.26 207.852L463.479 207.213L462.216 214.356L469.44 213.724L468.175 220.869L475.401 220.239L473.822 229.239Z" fill="#F4DA80"/>
<path d="M421.74 245.027L419.797 242.904L437.427 226.754L447.031 209.406L449.548 210.8L439.716 228.56L421.74 245.027Z" fill="#F4DA80"/>
<path d="M427.704 251.542L425.761 249.419L443.737 232.949L462.283 224.71L463.45 227.34L445.334 235.388L427.704 251.542Z" fill="#F4DA80"/>
<path d="M427.019 258.868L414.873 245.602L417.079 243.583L429.223 256.849L427.019 258.868Z" fill="#3C4DCE"/>
<path d="M419.638 258.798L410.895 249.247L413.098 247.228L421.843 256.779L419.638 258.798Z" fill="#3C4DCE"/>
<path d="M119.737 104.739C119.608 104.047 119.488 103.351 119.379 102.67L120.407 102.506C120.515 103.178 120.634 103.864 120.762 104.548L119.737 104.739Z" fill="#00046D"/>
<path d="M223.376 2.45078C222.014 2.37817 220.634 2.33063 219.272 2.3106L219.289 1.2667C220.662 1.28798 222.056 1.3368 223.431 1.40939L223.376 2.45078ZM211.064 2.49834L211.001 1.45821C212.373 1.3731 213.767 1.31428 215.143 1.28298L215.167 2.32561C213.803 2.3569 212.423 2.41573 211.064 2.49834ZM231.552 3.19804C230.198 3.0228 228.825 2.87135 227.472 2.74744L227.566 1.70855C228.933 1.83372 230.319 1.98643 231.686 2.16416L231.552 3.19804ZM202.898 3.31819L202.754 2.28556C204.115 2.09531 205.499 1.93008 206.869 1.7924L206.973 2.83004C205.617 2.96522 204.245 3.13044 202.898 3.31819ZM239.651 4.55357C238.314 4.27821 236.955 4.02538 235.613 3.80133L235.786 2.77247C237.14 2.99902 238.51 3.25435 239.86 3.53222L239.651 4.55357ZM194.817 4.76888L194.593 3.75002C195.937 3.45462 197.305 3.18175 198.66 2.93893L198.844 3.96529C197.502 4.20561 196.147 4.47598 194.817 4.76888ZM186.874 6.84288L186.573 5.84531C187.888 5.44603 189.23 5.06677 190.563 4.71881L190.826 5.72765C189.507 6.07185 188.178 6.44735 186.874 6.84288ZM179.119 9.53271L178.739 8.56142C180.02 8.05951 181.329 7.5776 182.629 7.12575L182.971 8.11207C181.683 8.55766 180.387 9.0358 179.119 9.53271ZM171.599 12.8246L171.143 11.8871C172.379 11.2863 173.646 10.7018 174.908 10.1485L175.327 11.1036C174.077 11.6505 172.823 12.2301 171.599 12.8246ZM164.365 16.7048L163.836 15.8061C165.019 15.1089 166.235 14.4242 167.45 13.7734L167.943 14.6921C166.741 15.3367 165.537 16.0138 164.365 16.7048ZM157.467 21.1544L156.866 20.3021C157.99 19.511 159.147 18.73 160.306 17.9827L160.87 18.8589C159.724 19.5986 158.578 20.3709 157.467 21.1544ZM150.958 26.1548L150.289 25.355C151.343 24.4726 152.432 23.6002 153.525 22.7603L154.16 23.5864C153.078 24.4175 152 25.2824 150.958 26.1548ZM144.892 31.6822L144.158 30.9425C145.132 29.9749 146.143 29.0124 147.164 28.0837L147.866 28.8547C146.856 29.7734 145.857 30.7247 144.892 31.6822ZM139.334 37.704L138.538 37.0318C139.422 35.9854 140.343 34.9415 141.277 33.9289L142.043 34.6361C141.12 35.6375 140.207 36.6701 139.334 37.704ZM134.34 44.1889L133.486 43.5906C134.272 42.4678 135.097 41.3451 135.938 40.2536L136.764 40.8895C135.932 41.9684 135.117 43.0786 134.34 44.1889ZM129.965 51.1068L129.059 50.5911C129.735 49.4008 130.453 48.2055 131.19 47.0389L132.072 47.5959C131.342 48.7487 130.633 49.9303 129.965 51.1068ZM126.271 58.4153L125.319 57.991C125.877 56.7368 126.476 55.4764 127.098 54.2447L128.029 54.7154C127.414 55.932 126.823 57.1762 126.271 58.4153ZM123.321 66.0592L122.331 65.7325C122.76 64.4271 123.23 63.1115 123.728 61.8236L124.7 62.1991C124.208 63.4708 123.745 64.77 123.321 66.0592ZM121.169 73.9723L120.15 73.7507C120.442 72.4052 120.773 71.0471 121.136 69.7128L122.142 69.9857C121.784 71.3025 121.457 72.6443 121.169 73.9723ZM119.861 82.0768L118.825 81.9654C118.972 80.5936 119.158 79.2042 119.378 77.8387L120.408 78.0051C120.19 79.3532 120.006 80.7225 119.861 82.0768ZM119.427 90.2565H118.385V90.2252C118.385 88.8558 118.422 87.4702 118.494 86.1059L119.535 86.161C119.463 87.5078 119.427 88.8746 119.427 90.2252V90.2565ZM118.83 98.5525C118.683 97.1794 118.571 95.7863 118.497 94.4107L119.538 94.3544C119.611 95.7112 119.722 97.0868 119.866 98.4411L118.83 98.5525Z" fill="#00046D"/>
<path d="M245.763 5.98779C245.103 5.81381 244.427 5.64108 243.751 5.47586L243.999 4.46326C244.681 4.62973 245.364 4.80372 246.029 4.98021L245.763 5.98779Z" fill="#00046D"/>
<path d="M290.218 95.6547L289.191 95.4783C289.46 93.9212 289.867 92.5343 290.398 91.359L291.348 91.7883C290.853 92.8848 290.472 94.1853 290.218 95.6547ZM288.945 103.931C288.847 102.747 288.797 101.589 288.797 100.49C288.797 100.228 288.801 99.9655 288.806 99.7064L289.848 99.7289C289.843 99.9792 289.84 100.233 289.84 100.49C289.84 101.561 289.888 102.689 289.983 103.844L288.945 103.931ZM290.296 112.243C289.968 110.852 289.688 109.463 289.466 108.115L290.495 107.945C290.714 109.27 290.988 110.636 291.311 112.003L290.296 112.243ZM292.721 120.294C292.238 118.972 291.79 117.63 291.389 116.305L292.388 116.003C292.782 117.31 293.224 118.633 293.7 119.935L292.721 120.294ZM296.036 128.014C295.417 126.765 294.824 125.482 294.273 124.199L295.231 123.787C295.774 125.053 296.359 126.318 296.97 127.55L296.036 128.014ZM300.179 135.323C299.429 134.156 298.697 132.946 298.006 131.725L298.913 131.212C299.595 132.415 300.316 133.608 301.055 134.758L300.179 135.323ZM305.134 142.109C304.252 141.044 303.384 139.926 302.554 138.79L303.397 138.175C304.213 139.294 305.068 140.394 305.936 141.444L305.134 142.109ZM310.892 148.216C309.879 147.276 308.875 146.281 307.912 145.257L308.67 144.542C309.619 145.549 310.605 146.527 311.6 147.451L310.892 148.216ZM317.449 153.47C316.305 152.687 315.169 151.842 314.072 150.961L314.724 150.147C315.801 151.012 316.916 151.841 318.038 152.609L317.449 153.47ZM324.738 157.662C323.481 157.069 322.226 156.412 321.01 155.712L321.529 154.808C322.721 155.494 323.951 156.138 325.184 156.719L324.738 157.662ZM369.763 158.207L369.411 157.225C370.687 156.767 371.988 156.265 373.278 155.733L373.675 156.697C372.37 157.235 371.054 157.744 369.763 158.207ZM332.615 160.604C331.27 160.226 329.925 159.786 328.616 159.298L328.98 158.321C330.263 158.8 331.58 159.229 332.896 159.599L332.615 160.604ZM361.73 160.633L361.483 159.62C362.799 159.299 364.143 158.931 365.477 158.527L365.779 159.526C364.427 159.935 363.065 160.307 361.73 160.633ZM353.463 162.121L353.345 161.084C354.691 160.93 356.068 160.726 357.435 160.48L357.621 161.506C356.23 161.756 354.832 161.964 353.463 162.121ZM340.868 162.195C339.473 162.042 338.074 161.832 336.71 161.569L336.907 160.545C338.243 160.803 339.614 161.008 340.982 161.157L340.868 162.195ZM346.747 162.51C346.187 162.51 345.62 162.502 345.063 162.485L345.096 161.442C346.45 161.484 347.84 161.474 349.225 161.412L349.271 162.455C348.429 162.491 347.58 162.51 346.747 162.51Z" fill="#00046D"/>
<path d="M437.36 131.851L437.33 130.809C438.206 130.784 439.09 130.772 439.96 130.772H439.966C440.484 130.772 441.007 130.776 441.523 130.784L441.505 131.827C440.996 131.818 440.478 131.814 439.966 131.814H439.96C439.1 131.814 438.226 131.827 437.36 131.851ZM449.772 132.356C448.411 132.204 447.023 132.082 445.645 131.995L445.712 130.953C447.106 131.042 448.511 131.166 449.888 131.32L449.772 132.356ZM429.089 132.448L428.97 131.413C430.361 131.252 431.764 131.12 433.143 131.02L433.218 132.061C431.854 132.159 430.466 132.29 429.089 132.448ZM457.945 133.687C456.606 133.399 455.236 133.141 453.875 132.92L454.042 131.891C455.421 132.115 456.808 132.376 458.164 132.667L457.945 133.687ZM420.892 133.731L420.691 132.708C422.064 132.437 423.452 132.191 424.818 131.977L424.979 133.007C423.626 133.219 422.253 133.463 420.892 133.731ZM412.816 135.641L412.539 134.636C413.889 134.264 415.254 133.915 416.597 133.597L416.837 134.612C415.506 134.926 414.153 135.273 412.816 135.641ZM465.939 135.839C464.637 135.414 463.3 135.017 461.97 134.66L462.24 133.652C463.589 134.015 464.942 134.417 466.262 134.847L465.939 135.839ZM404.892 138.118L404.548 137.134C405.869 136.672 407.205 136.229 408.522 135.817L408.833 136.812C407.528 137.22 406.202 137.66 404.892 138.118ZM473.664 138.816C472.412 138.256 471.125 137.72 469.842 137.225L470.216 136.252C471.517 136.754 472.821 137.297 474.09 137.865L473.664 138.816ZM397.14 141.104L396.736 140.143C398.026 139.6 399.333 139.073 400.618 138.578L400.993 139.551C399.717 140.043 398.42 140.565 397.14 141.104ZM481.024 142.606C479.84 141.913 478.619 141.242 477.395 140.611L477.872 139.684C479.112 140.323 480.349 141.003 481.551 141.706L481.024 142.606ZM487.926 147.175C486.826 146.356 485.686 145.555 484.537 144.795L485.113 143.926C486.277 144.697 487.433 145.508 488.549 146.339L487.926 147.175ZM494.281 152.481C493.278 151.544 492.234 150.622 491.178 149.74L491.846 148.939C492.917 149.833 493.975 150.768 494.993 151.72L494.281 152.481ZM499.994 158.47C499.107 157.425 498.174 156.391 497.223 155.393L497.977 154.674C498.941 155.685 499.887 156.735 500.788 157.794L499.994 158.47ZM504.971 165.081C504.217 163.942 503.412 162.806 502.581 161.702L503.413 161.075C504.258 162.194 505.074 163.349 505.841 164.505L504.971 165.081ZM509.103 172.247C508.498 171.024 507.841 169.798 507.151 168.6L508.053 168.078C508.756 169.296 509.423 170.542 510.037 171.785L509.103 172.247ZM512.259 179.886C511.829 178.595 511.342 177.293 510.813 176.013L511.775 175.614C512.314 176.916 512.81 178.243 513.248 179.556L512.259 179.886ZM514.279 187.889C514.051 186.552 513.762 185.193 513.423 183.85L514.433 183.595C514.779 184.964 515.073 186.35 515.306 187.714L514.279 187.889ZM516.004 196.108L514.962 196.099C514.963 195.999 514.963 195.897 514.963 195.796C514.963 194.543 514.908 193.259 514.801 191.981L515.84 191.893C515.951 193.2 516.006 194.513 516.006 195.796C516.006 195.9 516.006 196.004 516.004 196.108ZM423.84 196.83L423.384 195.892C424.627 195.285 425.924 194.711 427.237 194.184L427.625 195.151C426.335 195.669 425.062 196.234 423.84 196.83ZM416.797 201.094L416.16 200.268C417.209 199.461 418.39 198.662 419.669 197.896L420.204 198.791C418.959 199.537 417.813 200.311 416.797 201.094ZM515.11 204.495L514.09 204.277C514.373 202.955 514.589 201.587 514.734 200.212L515.772 200.321C515.623 201.733 515.4 203.137 515.11 204.495ZM411.502 207.131L410.562 206.678C411.139 205.48 411.962 204.288 413.009 203.136L413.781 203.837C412.801 204.916 412.035 206.023 411.502 207.131ZM512.426 212.498L511.482 212.054C512.061 210.828 512.574 209.547 513.009 208.244L513.999 208.574C513.549 209.916 513.02 211.236 512.426 212.498ZM408.936 215.039C408.936 214.97 408.936 214.9 408.935 214.831C408.935 213.54 409.068 212.18 409.332 210.79L410.356 210.984C410.106 212.31 409.978 213.605 409.978 214.83C409.978 214.895 409.978 214.961 409.979 215.028L408.936 215.039ZM507.929 219.643L507.121 218.984C507.983 217.924 508.789 216.803 509.513 215.65L510.396 216.206C509.648 217.395 508.819 218.55 507.929 219.643ZM411.187 223.232C410.446 221.996 409.882 220.668 409.508 219.283L410.514 219.012C410.863 220.304 411.389 221.543 412.08 222.695L411.187 223.232ZM501.868 225.515L501.232 224.688C502.326 223.848 503.373 222.946 504.344 222.007L505.069 222.757C504.069 223.723 502.993 224.651 501.868 225.515ZM417.138 229.288C415.904 228.457 414.794 227.551 413.837 226.596L414.573 225.857C415.482 226.766 416.542 227.628 417.721 228.423L417.138 229.288ZM494.692 229.935L494.234 228.998C495.483 228.388 496.698 227.722 497.844 227.019L498.39 227.907C497.215 228.628 495.971 229.311 494.692 229.935ZM486.845 232.972L486.547 231.972C486.758 231.909 486.965 231.846 487.167 231.783C488.288 231.435 489.393 231.05 490.454 230.641L490.828 231.615C489.747 232.032 488.62 232.423 487.478 232.779C487.27 232.843 487.059 232.907 486.845 232.972ZM424.716 233.019C423.335 232.522 422.024 231.973 420.82 231.39L421.274 230.451C422.445 231.019 423.723 231.554 425.069 232.038L424.716 233.019ZM478.668 234.873L478.479 233.848C479.897 233.587 481.264 233.306 482.543 233.013L482.776 234.029C481.482 234.326 480.1 234.61 478.668 234.873ZM432.828 235.243C431.412 234.956 430.035 234.631 428.735 234.28L429.008 233.273C430.287 233.619 431.64 233.938 433.036 234.221L432.828 235.243ZM470.382 236.101L470.262 235.066C471.653 234.904 473.04 234.721 474.382 234.524L474.534 235.555C473.181 235.754 471.785 235.938 470.382 236.101ZM441.127 236.488C439.706 236.341 438.306 236.166 436.964 235.967L437.117 234.936C438.443 235.132 439.829 235.305 441.235 235.45L441.127 236.488ZM462.044 236.831L461.983 235.789C463.359 235.708 464.754 235.605 466.128 235.485L466.218 236.525C464.835 236.645 463.43 236.748 462.044 236.831ZM449.49 237.031C448.075 236.988 446.666 236.923 445.305 236.836L445.371 235.795C446.722 235.882 448.118 235.947 449.522 235.988L449.49 237.031ZM453.68 237.088L453.677 236.046C455.045 236.043 456.442 236.019 457.832 235.977L457.864 237.02C456.465 237.062 455.056 237.086 453.68 237.088Z" fill="#00046D"/>
<path d="M489.349 190.779C486.954 190.586 485.219 190.577 485.201 190.577L485.206 189.533C485.224 189.533 486.994 189.543 489.433 189.739L489.349 190.779ZM497.507 192.058C496.305 191.742 494.945 191.47 493.467 191.246L493.622 190.215C495.137 190.443 496.534 190.724 497.772 191.049L497.507 192.058ZM504.09 195.958C503.667 195.018 502.733 194.173 501.318 193.445L501.795 192.517C503.425 193.356 504.518 194.37 505.039 195.529L504.09 195.958ZM501.76 203.218L501.134 202.384C502.333 201.483 503.211 200.51 503.744 199.49L504.668 199.973C504.064 201.132 503.085 202.223 501.76 203.218ZM494.121 206.894L493.798 205.903C495.205 205.444 496.494 204.945 497.631 204.419L498.068 205.367C496.894 205.909 495.566 206.423 494.121 206.894ZM485.958 208.912L485.768 207.886C487.184 207.624 488.548 207.333 489.821 207.023L490.067 208.037C488.776 208.351 487.393 208.645 485.958 208.912ZM448.389 209.969C446.8 209.745 445.403 209.482 444.237 209.188L444.493 208.177C445.621 208.462 446.982 208.718 448.535 208.937L448.389 209.969ZM477.659 210.091L477.55 209.053C478.955 208.907 480.341 208.738 481.672 208.551L481.817 209.584C480.474 209.773 479.075 209.943 477.659 210.091ZM469.303 210.699L469.258 209.658C470.652 209.597 472.048 209.516 473.408 209.418L473.485 210.459C472.113 210.558 470.707 210.639 469.303 210.699ZM456.746 210.701C455.296 210.635 453.888 210.545 452.563 210.432L452.652 209.392C453.963 209.504 455.357 209.594 456.793 209.66L456.746 210.701ZM462.901 210.838C462.244 210.838 461.581 210.834 460.931 210.825L460.945 209.781C462.311 209.802 463.716 209.8 465.102 209.779L465.118 210.822C464.381 210.833 463.635 210.838 462.901 210.838Z" fill="#00046D"/>
<path d="M140.175 64.3846C138.9 72.1812 131.55 77.467 123.756 76.1928C115.963 74.9174 110.679 67.5663 111.954 59.7697C113.228 51.9743 120.578 46.6873 128.371 47.9627C136.164 49.2369 141.448 56.5905 140.175 64.3846Z" fill="#EA3E72"/>
<path d="M130.145 60.9959L129.713 63.6294L132.32 66.7598L133.612 58.858L130.145 60.9959Z" fill="white"/>
<path d="M128.37 66.1139C128.288 66.6158 127.813 66.9588 127.31 66.8761L119.412 65.5844C118.909 65.5018 118.567 65.0262 118.65 64.5243L119.941 56.6225C120.024 56.1206 120.498 55.7776 121.001 55.8602L128.899 57.1519C129.403 57.2333 129.743 57.7089 129.662 58.2121L128.37 66.1139Z" fill="white"/>
<path d="M418.148 147.914C418.01 148.758 417.214 149.329 416.371 149.19C415.529 149.053 414.956 148.259 415.094 147.415C415.233 146.571 416.028 145.998 416.87 146.137C417.714 146.275 418.285 147.071 418.148 147.914Z" fill="white"/>
<path d="M414.608 155.174L413.081 154.925L413.705 151.107C413.843 150.266 414.639 149.693 415.481 149.829L420.062 150.579L419.811 152.105L415.232 151.356L414.608 155.174Z" fill="white"/>
<path d="M416.914 160.254L415.387 160.005L416.136 155.423L415.372 155.299L414.624 159.88L413.098 159.631L414.096 153.521L417.912 154.146L416.914 160.254Z" fill="white"/>
<path d="M417.663 155.673L413.846 155.049L414.595 150.468L418.411 151.092L417.663 155.673Z" fill="white"/>
<path d="M428.833 149.662C428.695 150.504 429.266 151.3 430.109 151.438C430.953 151.575 431.748 151.003 431.886 150.161C432.024 149.316 431.452 148.521 430.608 148.384C429.765 148.246 428.971 148.817 428.833 149.662Z" fill="white"/>
<path d="M431.402 157.92L429.875 157.671L430.499 153.853L425.92 153.105L426.17 151.578L430.75 152.326C431.59 152.464 432.164 153.262 432.026 154.102L431.402 157.92Z" fill="white"/>
<path d="M429.888 162.377L428.36 162.127L429.109 157.546L428.348 157.421L427.598 162.002L426.07 161.753L427.07 155.644L430.886 156.269L429.888 162.377Z" fill="white"/>
<path d="M426.821 157.172L430.639 157.796L431.387 153.214L427.571 152.589L426.821 157.172Z" fill="white"/>
<path d="M421.965 148.538C421.826 149.381 422.399 150.177 423.241 150.314C424.085 150.453 424.879 149.882 425.018 149.037C425.156 148.192 424.585 147.399 423.741 147.26C422.897 147.122 422.103 147.693 421.965 148.538Z" fill="white"/>
<path d="M423.019 161.253L419.966 160.754L421.464 151.592L424.517 152.091L423.019 161.253Z" fill="white"/>
<path d="M424.656 156.034L423.129 155.783L423.628 152.729L422.102 152.479L421.603 155.534L420.076 155.284L420.575 152.23C420.712 151.389 421.51 150.815 422.351 150.953L423.879 151.202C424.719 151.34 425.292 152.139 425.155 152.98L424.656 156.034Z" fill="white"/>
<path d="M258.258 102.444H255.256V105.447H258.258V102.444Z" fill="#C5E1F9"/>
<path d="M259.759 105.447H262.76V102.444H259.759V105.447Z" fill="#C5E1F9"/>
<path d="M264.26 105.447H267.261V102.444H264.26V105.447Z" fill="#C5E1F9"/>
<path d="M268.762 105.447H271.763V102.444H268.762V105.447Z" fill="#C5E1F9"/>
<path d="M258.258 106.949H255.256V109.95H258.258V106.949Z" fill="#C5E1F9"/>
<path d="M259.759 109.95H262.76V106.949H259.759V109.95Z" fill="#C5E1F9"/>
<path d="M264.26 109.95H267.261V106.949H264.26V109.95Z" fill="#C5E1F9"/>
<path d="M258.258 111.452H255.256V114.455H258.258V111.452Z" fill="#C5E1F9"/>
<path d="M259.759 114.455H262.76V111.452H259.759V114.455Z" fill="#C5E1F9"/>
<path d="M264.26 114.455H267.261V111.452H264.26V114.455Z" fill="#C5E1F9"/>
<path d="M268.762 108.448V114.455H271.763V106.948H268.762V108.448Z" fill="#C5E1F9"/>
<path d="M258.258 96.4384H271.766V93.4357H255.256V99.4412H258.258V96.4384Z" fill="#C5E1F9"/>
<path d="M274.768 117.457H252.253V90.4327H274.765L274.768 117.457ZM249.253 90.4327V117.457C249.253 119.112 250.599 120.46 252.253 120.46H274.765C276.421 120.46 277.768 119.112 277.768 117.457V90.4327C277.768 88.7768 276.421 87.43 274.765 87.43H252.253C250.599 87.43 249.253 88.7768 249.253 90.4327Z" fill="#C5E1F9"/>
<path d="M435.538 104.649H484.689C484.689 104.604 484.696 104.56 484.696 104.515C484.696 99.0567 480.274 94.6296 474.814 94.6296C473.888 94.6296 472.994 94.7648 472.144 95.0038C471.173 87.9369 465.117 82.4847 457.782 82.4847C449.771 82.4847 443.277 88.9821 443.277 96.9902C443.277 97.0215 443.279 97.0528 443.279 97.0866C439.277 97.5422 436.091 100.673 435.538 104.649Z" fill="#C5E1F9"/>
<defs>
<linearGradient id="paint0_linear_70_406" x1="319.027" y1="129.213" x2="414.391" y2="34.6526" gradientUnits="userSpaceOnUse">
<stop stop-color="#5367FF"/>
<stop offset="1" stop-color="#00D09C"/>
</linearGradient>
<linearGradient id="paint1_linear_70_406" x1="146.5" y1="159.465" x2="146.501" y2="220.859" gradientUnits="userSpaceOnUse">
<stop stop-color="#5367FF"/>
<stop offset="1" stop-color="#00D09C"/>
</linearGradient>
</defs>
</svg>
