<svg width="450" height="379" viewBox="0 0 450 379" fill="none" xmlns="http://www.w3.org/2000/svg">
<path d="M218.706 206.308H32.0342V366.498H218.706V206.308Z" fill="#9AC7F7"/>
<path d="M325.154 287.953H162.64V366.498H325.154V287.953Z" fill="#C5E1F9"/>
<path d="M242.219 192.202C242.219 192.202 226.882 178.466 238.707 156.622C245.265 144.538 241.805 111.489 220.634 121.714C199.412 131.99 205.195 119.184 193.215 124.864C181.236 130.596 175.969 139.168 177.569 148.515C179.17 157.861 178.137 175.729 170.753 179.137C163.369 182.545 128.153 201.755 150.873 225.974C173.593 250.296 256.212 232.48 242.219 192.202Z" fill="#212957"/>
<path d="M200.031 158.429C200.031 158.429 203.388 175.264 201.167 181.254C198.947 187.244 216.503 182.751 216.503 182.751C216.503 182.751 215.78 168.912 215.367 165.917C215.006 162.922 200.031 158.429 200.031 158.429Z" fill="#F7B68B"/>
<path d="M215.367 165.917C215.006 162.922 200.031 158.429 200.031 158.429C200.031 158.429 210.927 174.231 214.644 174.489C215.161 174.541 215.626 174.541 216.039 174.489C215.78 170.926 215.522 167.26 215.367 165.917Z" fill="#EC9568"/>
<path d="M224.714 141.595C224.714 141.595 225.85 156.932 223.991 161.424C222.132 165.917 221.357 169.274 216.865 168.912C212.373 168.551 205.247 161.786 201.167 159.204C197.037 156.57 194.042 153.575 195.539 149.857C197.036 146.139 198.895 149.134 198.895 150.219C198.895 151.355 210.514 153.214 219.447 147.585C221.719 146.191 225.075 143.815 224.714 141.595Z" fill="#F7B68B"/>
<path d="M216.607 250.141L252.598 220.964C252.598 220.964 259.466 221.739 256.264 226.128C253.011 230.518 231.685 256.286 231.685 256.286C231.685 256.286 209.895 266.149 216.607 250.141Z" fill="#EC9568"/>
<path d="M225.23 260.778L290.55 246.836C290.55 246.836 311.515 238.832 302.995 260.314C294.526 281.744 269.069 350.579 269.069 350.579L291.531 364.522H259.62L273.097 274.721C273.097 274.721 249.654 287.683 237.209 289.18C224.765 290.678 199.824 290.678 200.805 284.171C201.787 277.768 225.23 260.778 225.23 260.778Z" fill="#212957"/>
<path d="M261.118 351.096C261.118 351.096 260.602 355.95 260.602 357.447C260.602 358.945 263.855 363.179 264.113 364.419C264.371 365.658 264.371 365.658 264.371 365.658H239.947C239.947 365.658 239.431 363.179 243.459 359.926C247.435 356.673 248.674 354.452 249.19 350.321C249.655 346.19 261.118 351.096 261.118 351.096Z" fill="#3B47BC"/>
<path d="M217.588 182.39C217.588 182.39 231.788 184.61 233.647 190.239C235.506 195.868 234.783 199.224 234.783 201.858C234.834 204.44 216.865 192.46 217.588 182.39Z" fill="#225AAA"/>
<path d="M202.252 180.479L217.588 182.338C217.588 182.338 234.783 200.309 238.552 201.032C242.27 201.755 237.262 242.756 238.191 248.282C238.707 251.277 224.714 252.671 217.226 253.755C209.739 254.892 199.257 253.755 199.257 253.755C199.257 253.755 202.975 241.775 200.393 229.433C197.759 217.092 186.193 207.745 188.775 199.121C191.408 190.601 183.921 190.601 202.252 180.479Z" fill="url(#paint0_linear_55_470)"/>
<path d="M191.409 190.601C191.409 190.601 195.54 202.219 194.765 209.655C194.042 217.143 191.77 235.475 191.77 235.475C191.77 235.475 187.278 256.802 178.654 254.169C170.031 251.535 170.805 227.213 176.795 211.876C182.837 196.591 188.827 186.883 191.409 190.601Z" fill="#225AAA"/>
<path d="M244.749 226.542L233.75 225.922C232.511 225.87 231.943 224.786 232.459 223.598L242.89 199.276C243.406 198.088 244.852 197.107 246.091 197.211L257.09 197.83C258.329 197.882 258.897 198.966 258.381 200.154L247.95 224.476C247.382 225.716 245.936 226.645 244.749 226.542Z" fill="#003E99"/>
<path d="M174.42 246.784C174.42 246.784 174.781 251.07 174.781 252C174.781 252.929 178.912 254.065 183.198 254.065C187.484 254.065 219.292 235.733 222.287 234.442C225.282 233.151 232.202 231.241 233.906 231.086C235.61 230.879 236.9 226.232 235.971 223.237C235.351 221.274 234.732 219.519 233.802 218.951C233.338 218.641 232.77 218.692 232.047 219.105C229.981 220.396 221.771 227.523 221.771 227.523C221.771 227.523 202.51 231.086 194.816 234.442C187.123 237.799 178.138 241.93 174.42 246.784Z" fill="#F7B68B"/>
<path d="M243.613 220.19L233.75 218.899L235.919 223.185L234.628 229.743L240.05 230.673C240.05 230.673 240.773 229.743 239.843 229.382C238.914 229.02 237.623 228.452 237.623 228.452C237.623 228.452 240.256 228.091 241.341 227.884C242.477 227.678 242.632 227.316 242.632 226.748C242.632 226.18 241.496 225.819 241.496 225.819C241.496 225.819 243.561 225.096 243.716 224.528C243.922 223.96 244.284 223.237 243.922 222.669C243.613 222.101 244.181 220.603 243.613 220.19Z" fill="#EC9568"/>
<path d="M254.922 213.632L250.223 207.332L243.097 200.722C243.097 200.722 242.168 201.703 243.304 203.356C244.44 205.008 248.519 209.81 248.519 209.81L250.533 213.219L250.946 213.89C251.049 213.838 253.889 216.833 254.922 213.632Z" fill="#F0BF97"/>
<path d="M251.152 212.341C251.152 212.341 251.204 214.51 250.739 214.664C250.275 214.819 249.603 214.096 248.57 213.27C247.538 212.496 244.543 209.965 244.543 209.965L239.896 207.125C239.896 207.125 240.257 209.191 240.825 209.862C241.6 210.843 243.665 212.651 243.665 212.651L247.848 217.092C247.848 217.092 251.256 219.777 251.617 219.054C251.979 218.331 251.669 217.195 252.392 216.782C253.218 216.472 254.87 214.923 251.152 212.341Z" fill="#F0BF97"/>
<path d="M245.524 216.73L242.581 214.148C242.581 214.148 239.173 211.721 238.966 212.134C238.76 212.547 238.76 212.547 238.76 212.547C238.76 212.547 239.483 213.528 240.515 214.664C240.929 215.078 242.684 216.937 243.149 217.35C244.801 218.899 246.195 221.223 246.505 221.378C246.763 221.532 250.533 221.584 245.524 216.73Z" fill="#F0BF97"/>
<path d="M256.729 214.148L256.832 207.951L252.959 200.877C252.959 200.877 251.978 201.961 252.805 204.388C253.631 206.815 253.631 207.074 253.889 207.332C254.147 207.59 253.114 211.566 253.114 211.566C253.114 211.566 256.419 215.491 256.729 214.148Z" fill="#F0BF97"/>
<path d="M251.978 216.059L255.18 212.392C255.18 212.392 257.194 212.496 257.09 216.472C256.987 220.396 257.4 224.114 257.4 224.114C257.4 224.114 256.419 226.542 254.767 226.438C253.114 226.387 250.481 226.438 248.57 224.837C246.711 223.185 245.833 220.293 245.524 219.415C245.214 218.331 246.866 218.796 247.537 218.331C248.364 217.763 248.312 216.472 248.983 216.265C250.171 215.955 251.978 216.059 251.978 216.059Z" fill="#F0BF97"/>
<path d="M199.257 253.807H217.227L275.576 241.362C275.576 241.362 291.016 236.353 285.542 251.328C280.069 266.304 260.653 348.565 260.653 348.565L249.19 347.584C249.19 347.584 251.204 293.208 256.677 283.758C262.151 274.256 262.667 271.313 262.667 271.313C262.667 271.313 226.263 290.781 211.288 289.748C196.314 288.715 183.818 277.251 199.257 253.807Z" fill="#212957"/>
<path d="M203.75 254.84C203.75 254.84 191.305 270.796 200.238 275.805C209.223 280.814 272.581 253.859 272.581 253.859C272.581 253.859 251.152 309.164 253.631 345.57" stroke="#8DCFFF" stroke-width="0.351473" stroke-miterlimit="10"/>
<path d="M143.902 360.288L142.766 373.249C142.766 373.249 156.914 376.503 161.51 376.038C166.157 375.573 171.94 375.367 171.94 375.367C171.94 375.367 172.612 372.578 169.152 370.977C165.692 369.376 154.797 365.658 153.661 364.935C152.525 364.264 151.131 361.476 151.131 361.476L143.902 360.288Z" fill="#212957"/>
<path d="M78.5811 364.471L78.7876 373.249C78.7876 373.249 85.5004 377.432 88.96 378.103C92.4197 378.775 96.8089 377.897 96.8089 377.897C96.8089 377.897 98.203 375.108 96.3441 373.714C94.4852 372.32 88.0306 366.743 87.3077 365.142C86.688 363.541 78.5811 364.471 78.5811 364.471Z" fill="#212957"/>
<path d="M114.469 149.548H71.8685C71.8685 149.548 68.9252 173.663 69.0801 181.977C69.5449 206.506 74.3471 281.073 74.3471 281.073L76.8256 364.471L89.1668 365.09L96.6025 266.872L104.606 165.607L114.469 149.548Z" fill="#003E99"/>
<path d="M142.301 361.372L121.285 263.206L94.124 170.565V149.548H126.242L144.108 255.77L153.403 363.231L142.301 361.372Z" fill="#003E99"/>
<path d="M113.54 13.0648C113.54 13.0648 116.122 6.5582 115.708 4.44098C114.469 -2.06557 109.822 1.65246 109.822 1.65246C109.822 1.65246 101.198 -2.06557 95.9315 1.65246C90.6646 5.37049 88.2376 7.53934 88.2376 9.96639C88.2376 12.4451 91.6457 8.10738 88.2376 7.4877C84.8296 6.86803 82.6609 11.8254 83.9002 15.8016C85.1394 19.7779 86.3787 31.2418 93.1431 32.4811C99.9592 33.7721 113.54 13.0648 113.54 13.0648Z" fill="#212957"/>
<path d="M109.563 55.3573L108.633 39.2975L95.6724 32.2229L93.8135 58.7655L101.198 72.3467L109.563 55.3573Z" fill="#F7B68B"/>
<path d="M109.253 50.2452C99.5457 48.3862 97.6351 38.8846 97.377 33.1526L108.634 39.2977L109.253 50.2452Z" fill="#EC9568"/>
<path d="M113.229 7.53931C113.229 7.53931 118.806 18.0221 120.045 27.0073C121.284 35.9409 120.975 43.6869 116.327 43.377C111.68 43.0672 101.198 40.2787 96.2406 36.5606C91.2835 32.8426 87.6173 25.768 90.6639 24.2188C93.7621 22.6696 95.9308 26.0778 95.9308 26.0778C95.9308 26.0778 98.7192 24.2188 96.8603 19.8811C95.0013 15.5434 84.8289 9.08849 94.6915 10.018C104.606 10.8959 114.468 10.586 113.229 7.53931Z" fill="#F7B68B"/>
<path d="M135.795 72.037C134.246 71.7271 111.113 58.4558 111.113 58.4558L101.56 65.2722L93.8661 58.7656L65.4658 68.6288L70.9393 121.456L71.8688 149.548H126.191L135.795 72.037Z" fill="url(#paint1_linear_55_470)"/>
<path d="M101.508 65.2722L109.563 55.3574L111.112 58.4558L108.014 74.5156L101.508 65.2722Z" fill="white"/>
<path d="M101.507 65.2722L96.2921 72.6566L91.335 57.8361L94.743 55.0476L101.507 65.2722Z" fill="white"/>
<path d="M83.8994 62.7936L101.508 93.0542L117.257 63.7231" stroke="#EAF4FE" stroke-width="0.702919" stroke-miterlimit="10"/>
<path d="M144.728 146.759C144.728 146.759 145.967 128.22 144.418 117.738C142.869 107.255 138.222 71.727 135.795 72.0368C133.316 72.3466 127.481 119.287 127.481 119.287L130.58 147.379L144.728 146.759Z" fill="#DDEFFF"/>
<path d="M142.869 146.759L141.63 194.319L136.673 209.139L135.124 192.15C133.575 194.009 132.335 194.939 132.026 192.46C131.716 189.981 133.575 186.883 133.885 185.643C134.194 184.404 136.053 182.545 136.053 182.545L130.477 147.327L142.869 146.759Z" fill="#F7B68B"/>
<path d="M117.722 128.427L105.949 126.723C104.813 126.568 104.141 125.484 104.554 124.399L111.99 101.729C112.351 100.593 113.591 99.8188 114.727 99.9737L126.5 101.678C127.636 101.833 128.307 102.917 127.894 104.002L120.458 126.671C120.097 127.807 118.858 128.634 117.722 128.427Z" fill="#281617"/>
<path d="M116.379 106.842L125.726 110.663C125.726 110.663 124.848 111.799 123.454 111.748C122.059 111.696 124.641 113.348 125.984 113.71C127.326 114.071 126.81 115.414 125.158 115.724C123.505 116.034 125.416 116.292 125.313 116.963C125.209 117.634 127.326 117.789 124.177 117.531C121.027 117.273 120.046 117.841 120.046 117.841L124.28 120.423C124.28 120.423 124.745 121.043 121.595 120.733C118.445 120.475 114.934 120.32 114.934 120.32C114.934 120.32 115.14 107.875 116.379 106.842Z" fill="#F7B68B"/>
<path d="M100.682 113.606C100.682 113.606 98.4099 118.254 99.1844 120.474C99.9073 122.695 100.837 122.643 105.742 121.765C110.648 120.888 114.985 120.268 114.985 120.268C114.985 120.268 120.82 106.79 116.379 106.842C111.939 106.893 104.916 110.147 100.682 113.606Z" fill="#EC9568"/>
<path d="M64.1227 112.78L101.921 111.128C101.921 111.128 103.367 119.132 101.559 123.366C99.7521 127.601 81.2662 133.178 70.5774 133.797C59.8885 134.365 52.9176 133.642 49.0448 130.957C45.172 128.272 39.2854 120.113 46.8761 105.138C54.4667 90.1622 62.3671 71.2622 64.0711 70.7974C65.7751 70.3327 70.8872 100.593 70.8872 100.593L64.4326 110.973L64.1227 112.78Z" fill="#DDEFFF"/>
<path d="M401.777 229.434C408.128 231.086 417.475 235.217 419.643 246.371C422.948 263.051 417.526 287.27 428.68 311.024C432.243 318.615 363.153 330.905 363.153 330.905L351.999 246.371C351.999 246.371 367.955 233.203 371.363 231.861C378.489 229.124 389.023 226.129 401.777 229.434Z" fill="#FFDE59"/>
<path d="M352.67 246.681C349.572 253.343 340.639 293.518 347.816 303.484C348.642 304.62 343.685 306.118 344.305 311.179C344.408 312.005 345.699 316.136 345.699 316.136L351.895 318.098L371.414 308.287L368.006 303.691L366.302 303.639C366.302 303.639 364.753 302.038 365.321 300.179C365.889 298.32 361.19 295.067 355.562 263.257C353.858 253.859 353.341 245.184 352.67 246.681Z" fill="#FFAB01"/>
<path d="M357.215 302.039L362.895 301.109L365.167 300.851C365.115 302.4 366.303 303.588 366.303 303.588L361.965 303.484L356.802 304.311L350.45 307.512L357.215 302.039Z" fill="#EAF4FE"/>
<path d="M362.533 305.756C362.533 305.756 358.195 305.705 354.477 307.977C351.637 309.733 349.055 313.502 351.637 315.516C354.219 317.582 358.195 319.441 358.195 319.441C358.195 319.441 368.109 319.751 362.533 305.756Z" fill="#C4D1E1"/>
<path d="M351.689 315.671L354.323 315.103C354.323 315.103 363.411 314.277 364.753 315C366.044 315.723 370.227 318.563 370.227 318.563L371.105 319.338C371.105 319.338 369.091 320.629 366.302 318.666C363.566 316.756 363.308 318.202 363.308 318.202L363.772 320.629L363.721 323.727L364.134 325.018C364.134 325.018 364.495 325.741 364.237 325.999C363.359 326.774 362.533 326.412 362.533 326.412L359.745 321.558L358.97 326.825C358.97 326.825 358.609 327.548 357.731 327.703C356.905 327.858 356.905 327.652 356.905 327.652L356.285 326.309C356.233 326.567 356.078 326.98 355.717 327.238C355.046 327.755 354.065 327.703 354.065 327.703L354.323 322.178L353.187 324.966C353.187 324.966 352.774 325.689 351.947 325.844C351.018 326.051 350.76 326.154 350.76 326.154L351.689 315.671Z" fill="#E4EEF3"/>
<path d="M390.055 293.983C390.055 293.983 383.446 310.766 367.542 315.207C364.805 315.981 363.101 318.976 364.444 319.906C366.148 321.145 368.471 321.403 372.447 321.403C380.761 321.403 392.069 318.821 399.918 311.23C411.485 300.025 415.151 294.912 413.963 289.284C412.776 283.603 390.055 293.983 390.055 293.983Z" fill="#F7B68B"/>
<path d="M416.545 241.053C419.902 246.578 421.864 255.46 421.812 268.215C421.812 278.078 413.292 294.189 412.001 299.147C411.795 299.973 411.278 303.536 411.278 303.536L401.881 312.78L383.033 299.973L388.765 291.143L390.469 291.298C390.469 291.298 391.553 286.444 391.243 284.533C390.934 282.622 396.459 257.267 399.196 241.001C400.745 231.603 413.189 235.579 416.545 241.053Z" fill="#FFAB01"/>
<path d="M399.66 290.936L394.135 289.232L391.914 288.664C391.76 290.213 390.417 291.246 390.417 291.246L394.754 291.762L399.763 293.311L405.598 297.339L399.66 290.936Z" fill="#FEC12F"/>
<path d="M368.73 315.155L359.125 312.521C359.125 312.521 356.388 316.188 356.905 317.065C357.421 317.995 356.905 323.365 356.905 323.365L361.552 327.342L365.321 326.102C365.321 326.102 365.58 324.45 364.289 324.295C362.998 324.14 365.167 323.21 365.838 322.797C366.561 322.384 372.138 319.544 368.73 315.155Z" fill="#F7B68B"/>
<path d="M370.898 218.073C370.898 218.073 385.201 214.665 388.971 211.102C392.74 207.539 384.323 206.557 386.647 200.361C390.003 191.375 379.831 177.846 376.216 187.761C372.653 197.675 377.714 201.239 377.404 196.539C377.094 191.84 379.573 179.189 366.25 180.996C352.928 182.803 348.9 191.685 360.364 195.093C371.776 198.45 346.319 184.352 347.506 193.131C348.694 201.91 356.491 200.309 359.176 200.051C361.861 199.741 347.919 194.216 350.088 203.356C352.102 212.496 360.364 215.956 370.898 218.073Z" fill="#212A54"/>
<path d="M381.948 217.092C381.948 217.092 383.342 225.302 384.943 229.021C387.834 235.734 391.449 246.733 369.607 241.569C365.94 240.691 376.319 229.743 371.104 224.321C365.992 218.951 381.948 217.092 381.948 217.092Z" fill="#F7B68B"/>
<path d="M383.756 216.989C383.756 216.989 380.916 220.035 384.633 230.105C384.633 230.105 377.508 233.616 372.963 229.589C373.17 227.936 372.809 226.129 371.156 224.373C365.993 218.951 383.756 216.989 383.756 216.989Z" fill="#EC9568"/>
<path d="M359.899 199.018C359.899 199.018 358.04 205.938 360.467 216.369C362.894 226.852 368.419 229.279 377.094 226.645C385.718 224.011 385.666 213.374 385.15 210.792C384.633 208.21 393.102 209.191 390.468 203.511C387.835 197.83 384.53 200.567 384.427 202.943C384.323 205.318 383.187 208.52 381.07 206.867C378.953 205.215 381.432 195.558 377.404 197.52C373.325 199.534 366.199 202.426 359.899 199.018Z" fill="#F7B68B"/>
<path d="M297.883 332.661C300.207 339.116 341.258 362.973 355.045 361.579L396.509 363.541C431.777 359.255 448.456 304.466 448.456 304.466C447.062 290.729 412.31 310.662 399.917 316.807C380.295 326.619 367.903 327.084 367.903 327.084C354.787 328.426 339.554 318.305 323.03 317.943C304.802 317.582 294.165 322.436 297.883 332.661Z" fill="#281616"/>
<path d="M388.092 326.102C388.092 326.051 388.092 326.051 388.092 326.102L388.144 324.347L316.73 323.004L316.679 324.708V324.76L316.834 325.07C317.711 326.567 319.364 326.877 321.274 326.929L383.393 328.065C385.304 328.116 386.905 327.858 387.886 326.361L388.092 326.102Z" fill="#B6C2C9"/>
<path d="M370.846 326.05C370.846 326.05 370.846 326.102 370.846 326.05L371.001 326.36C371.259 326.773 371.62 327.032 372.033 327.238L382.877 327.445C384.684 327.496 386.285 327.29 387.163 326.102L387.318 325.844C387.318 325.844 387.318 325.792 387.369 325.792V324.966L370.846 324.656V326.05Z" fill="#D8E5ED"/>
<path d="M325.566 323.546L325.543 324.785L361.217 325.434L361.239 324.195L325.566 323.546Z" fill="#879BA6"/>
<path d="M370.485 323.933L361.913 288.664C361.706 287.734 360.725 286.96 359.847 286.96L309.76 286.03C308.83 286.03 308.262 286.753 308.52 287.683L317.144 322.952L370.485 323.933Z" fill="#D9E1E4"/>
<path d="M342.497 305.033C342.962 306.841 341.826 308.287 340.071 308.235C338.263 308.183 336.456 306.686 336.043 304.93C335.63 303.123 336.714 301.677 338.47 301.729C340.277 301.729 342.084 303.226 342.497 305.033Z" fill="#B6C2C9"/>
<path d="M402.809 372.681C397.852 373.507 394.082 367.775 394.082 367.775L381.328 357.706L384.013 350.889L408.851 362.043C408.902 362.095 407.766 371.803 402.809 372.681Z" fill="#F7B68B"/>
<path d="M394.082 367.414C394.082 367.414 394.082 368.033 395.011 370.615C395.941 373.249 397.129 374.127 398.368 374.54C403.118 375.934 406.578 375.211 418.042 377.432C429.505 379.652 432.965 377.948 436.269 372.681C439.626 367.414 436.166 363.231 430.538 362.818C422.431 362.198 417.938 363.128 413.756 362.508C409.315 361.837 409.057 360.856 406.475 359.255C404.048 357.757 401.828 366.639 404.1 368.705C406.165 370.46 395.838 370.77 394.082 367.414Z" fill="#281617"/>
<path d="M394.134 367.568C394.134 367.465 394.134 367.414 394.134 367.414C394.185 367.465 394.185 367.517 394.237 367.568C394.185 367.568 394.134 367.568 394.134 367.568Z" fill="#F7B68B"/>
<path d="M401.932 356.26C401.932 356.26 314.201 320.216 309.192 320.164C292.255 320.009 296.128 337.153 304.7 345.209C314.821 354.711 391.811 372.113 391.811 372.113L401.932 356.26Z" fill="#212957"/>
<path d="M367.18 362.508L391.088 339.838L380.915 329.717L354.735 357.189L367.18 362.508Z" fill="#F7B68B"/>
<path d="M362.222 344.692C362.222 344.692 423.153 288.819 427.284 287.166C441.174 281.538 449.798 296.874 449.333 302.193C448.713 309.061 386.801 365.038 386.801 365.038L362.222 344.692Z" fill="#212957"/>
<path d="M326.076 364.315C324.63 365.658 324.424 369.479 324.424 369.479C324.424 369.479 344.769 377.174 351.895 377.328C353.754 377.38 357.11 376.606 360.311 375.728C360.828 375.573 362.067 374.178 362.635 374.024C363.616 373.714 363.823 374.695 364.649 374.437C366.818 373.765 368.367 373.146 368.418 373.042C372.704 363.902 371.258 359.41 371.258 359.41C371.258 359.41 361.912 362.095 363.513 359.978C366.921 355.485 357.162 350.941 354.941 353.316C346.215 362.869 330.207 360.494 326.076 364.315Z" fill="#281617"/>
<path d="M67.3762 56.8549V19.2615H0.351562V56.8549H38.6661L57.2037 66.0984V56.8549H67.3762Z" stroke="#0561FC" stroke-width="0.702919" stroke-miterlimit="10"/>
<path d="M2.20996 20.9656L33.8633 43.8418L65.5167 20.9656" stroke="#0561FC" stroke-width="0.702919" stroke-miterlimit="10"/>
<path d="M209.793 99.4088V109.161L226.406 99.4088H274.644V54.7744H209.793V99.4088Z" fill="#C5E1F9"/>
<path d="M249.189 63.0518H235.918L230.651 68.3706V89.5427H249.189V84.2239V63.0518Z" stroke="#0561FC" stroke-width="0.702919" stroke-miterlimit="10"/>
<path d="M231.942 69.6615H237.261V64.3943" stroke="#0561FC" stroke-width="0.702919" stroke-miterlimit="10"/>
<path d="M243.87 80.2476L239.894 84.2238L235.918 80.2476" stroke="#0561FC" stroke-width="0.702919" stroke-miterlimit="10"/>
<path d="M239.895 82.9329V74.9805" stroke="#0561FC" stroke-width="0.702919" stroke-miterlimit="10"/>
<path d="M284.302 168.912L287.606 172.269L295.559 164.316" stroke="#0561FC" stroke-width="0.702919" stroke-miterlimit="10"/>
<path d="M300.206 151.045H316.059" stroke="#7EB3FF" stroke-width="0.702919" stroke-miterlimit="10"/>
<path d="M298.863 182.855H318.743" stroke="#0561FC" stroke-width="0.702919" stroke-miterlimit="10"/>
<path d="M280.326 176.194V160.34H296.23" stroke="#0561FC" stroke-width="0.702919" stroke-miterlimit="10"/>
<path d="M286.936 178.879V222.566H338.469V210.637V178.879V153.524L325.405 140.459H286.936V156.364" stroke="#7EB3FF" stroke-width="0.702919" stroke-miterlimit="10"/>
<path d="M325.354 139.168V153.73H338.573" stroke="#7EB3FF" stroke-width="0.702919" stroke-miterlimit="10"/>
<path d="M327.574 163.852H300.206V177.072H327.574V163.852Z" stroke="#0561FC" stroke-width="0.702919" stroke-miterlimit="10"/>
<path d="M298.863 208.881H318.743" stroke="#7EB3FF" stroke-width="0.702919" stroke-miterlimit="10"/>
<path d="M327.574 189.878H300.206V203.098H327.574V189.878Z" stroke="#7EB3FF" stroke-width="0.702919" stroke-miterlimit="10"/>
<defs>
<linearGradient id="paint0_linear_55_470" x1="188.401" y1="180.479" x2="257.678" y2="228.876" gradientUnits="userSpaceOnUse">
<stop stop-color="#5367FF"/>
<stop offset="1" stop-color="#00D09C"/>
</linearGradient>
<linearGradient id="paint1_linear_55_470" x1="65.4658" y1="58.4558" x2="153.593" y2="126.496" gradientUnits="userSpaceOnUse">
<stop stop-color="#5367FF"/>
<stop offset="1" stop-color="#00D09C"/>
</linearGradient>
</defs>
</svg>
