<svg width="30" height="30" viewBox="0 0 30 30" fill="none" xmlns="http://www.w3.org/2000/svg">
<g clip-path="url(#clip0_41_2000)">
<path d="M6.24961 16.475V19.9875C6.24961 20.9 6.74961 21.75 7.54961 22.1875L13.7996 25.6C14.5496 26.0125 15.4496 26.0125 16.1996 25.6L22.4496 22.1875C23.2496 21.75 23.7496 20.9 23.7496 19.9875V16.475L16.1996 20.6C15.4496 21.0125 14.5496 21.0125 13.7996 20.6L6.24961 16.475ZM13.7996 4.4L3.26211 10.15C2.39961 10.625 2.39961 11.875 3.26211 12.35L13.7996 18.1C14.5496 18.5125 15.4496 18.5125 16.1996 18.1L26.2496 12.6125V20C26.2496 20.6875 26.8121 21.25 27.4996 21.25C28.1871 21.25 28.7496 20.6875 28.7496 20V11.9875C28.7496 11.525 28.4996 11.1125 28.0996 10.8875L16.1996 4.4C15.4496 4 14.5496 4 13.7996 4.4Z" fill="#5367FF"/>
</g>
<defs>
<clipPath id="clip0_41_2000">
<rect width="30" height="30" fill="white"/>
</clipPath>
</defs>
</svg>
