<svg width="30" height="30" viewBox="0 0 30 30" fill="none" xmlns="http://www.w3.org/2000/svg">
<g clip-path="url(#clip0_41_1994)">
<path d="M22.8999 7.1C22.4499 7.55 22.4124 8.25 22.8124 8.75C24.6249 11.025 25.5749 14.1375 24.7249 17.4C23.7374 21.2125 20.7499 24.0625 16.9624 24.825C10.5874 26.0875 4.99987 21.1625 4.99987 15C4.99987 9.9 8.81237 5.7 13.7499 5.0875V7.6125C9.83737 8.275 6.96237 11.9375 7.58737 16.15C8.07487 19.4125 10.7874 22.0375 14.0624 22.4375C18.6124 23 22.4999 19.45 22.4999 15C22.4999 13.4375 22.0249 12 21.2124 10.8C20.7874 10.175 19.8749 10.1375 19.3374 10.6625L19.3249 10.675C18.8999 11.1 18.8624 11.7625 19.1874 12.2625C19.9374 13.4125 20.2374 14.8875 19.7999 16.4125C19.3124 18.125 17.8749 19.4875 16.1249 19.875C12.8749 20.5875 9.99987 18.1375 9.99987 15C9.99987 12.675 11.5999 10.7375 13.7499 10.175V12.85C12.9999 13.2875 12.4999 14.075 12.4999 15C12.4999 16.375 13.6249 17.5 14.9999 17.5C16.3749 17.5 17.4999 16.375 17.4999 15C17.4999 14.075 16.9999 13.275 16.2499 12.85V3.3875C16.2499 2.9 15.8499 2.5 15.3624 2.5C8.66237 2.25 2.88737 7.575 2.52487 14.25C2.07487 22.4375 9.28737 29.025 17.5374 27.25C22.3874 26.2125 26.1374 22.5 27.2249 17.6625C28.1124 13.7125 26.9749 9.9625 24.7624 7.2C24.2999 6.6125 23.4249 6.575 22.8999 7.1Z" fill="#5367FF"/>
</g>
<defs>
<clipPath id="clip0_41_1994">
<rect width="30" height="30" fill="white"/>
</clipPath>
</defs>
</svg>
